<svg width="1536" height="954" viewBox="0 0 1536 954" fill="none" xmlns="http://www.w3.org/2000/svg">
<g clip-path="url(#clip0_813_2)">
<rect width="1536" height="954" fill="#0B0A1C"/>
<g filter="url(#filter0_f_813_2)">
<circle cx="768" cy="1252" r="817" fill="#1D1E46"/>
</g>
<g style="mix-blend-mode:soft-light" opacity="0.15">
<mask id="mask0_813_2" style="mask-type:luminance" maskUnits="userSpaceOnUse" x="-209" y="-16" width="1972" height="986">
<path d="M-208.848 970L1762.09 970L1762.09 -15.4089L-208.848 -15.4089L-208.848 970Z" fill="white"/>
</mask>
<g mask="url(#mask0_813_2)">
<path d="M-208.856 970L1762.09 970L1762.09 -15.4089L-208.856 -15.4089L-208.856 970Z" fill="url(#paint0_radial_813_2)"/>
<g style="mix-blend-mode:screen">
<path d="M823.618 -1077.83L-778.68 524.367L-774.359 528.687L827.939 -1073.51L823.618 -1077.83Z" fill="#595657"/>
<path d="M848.212 -1053.39L-754.086 548.805L-749.766 553.125L852.533 -1049.07L848.212 -1053.39Z" fill="#595657"/>
<path d="M872.72 -1028.95L-729.578 573.243L-725.258 577.563L877.04 -1024.63L872.72 -1028.95Z" fill="#595657"/>
<path d="M897.033 -1004.32L-705.266 597.879L-700.945 602.199L901.353 -999.998L897.033 -1004.32Z" fill="#595657"/>
<path d="M921.829 -979.881L-680.469 622.316L-676.148 626.636L926.15 -975.561L921.829 -979.881Z" fill="#595657"/>
<path d="M946.142 -955.245L-656.156 646.952L-651.836 651.272L950.462 -950.925L946.142 -955.245Z" fill="#595657"/>
<path d="M970.65 -930.807L-631.648 671.391L-627.328 675.711L974.97 -926.486L970.65 -930.807Z" fill="#595657"/>
<path d="M995.243 -906.369L-607.055 695.828L-602.734 700.148L999.564 -902.049L995.243 -906.369Z" fill="#595657"/>
<path d="M1019.76 -881.734L-582.539 720.463L-578.219 724.783L1024.08 -877.414L1019.76 -881.734Z" fill="#595657"/>
<path d="M1044.21 -857.156L-558.086 745.041L-553.766 749.361L1048.53 -852.836L1044.21 -857.156Z" fill="#595657"/>
<path d="M1068.86 -832.857L-533.438 769.34L-529.117 773.66L1073.18 -828.537L1068.86 -832.857Z" fill="#595657"/>
<path d="M1093.17 -808.223L-509.125 793.975L-504.805 798.295L1097.49 -803.902L1093.17 -808.223Z" fill="#595657"/>
<path d="M1117.82 -783.645L-484.477 818.552L-480.156 822.872L1122.14 -779.325L1117.82 -783.645Z" fill="#595657"/>
<path d="M1142.27 -759.346L-460.023 842.852L-455.703 847.172L1146.6 -755.025L1142.27 -759.346Z" fill="#595657"/>
<path d="M1166.79 -734.711L-435.508 867.486L-431.187 871.806L1171.11 -730.391L1166.79 -734.711Z" fill="#595657"/>
<path d="M1191.24 -710.134L-411.055 892.063L-406.734 896.384L1195.56 -705.814L1191.24 -710.134Z" fill="#595657"/>
<path d="M1215.89 -685.834L-386.406 916.363L-382.086 920.683L1220.21 -681.514L1215.89 -685.834Z" fill="#595657"/>
<path d="M1240.2 -661.199L-362.094 940.998L-357.773 945.318L1244.52 -656.879L1240.2 -661.199Z" fill="#595657"/>
<path d="M1264.86 -636.622L-337.438 965.575L-333.117 969.895L1269.18 -632.302L1264.86 -636.622Z" fill="#595657"/>
<path d="M1289.31 -612.323L-312.984 989.874L-308.664 994.194L1293.63 -608.003L1289.31 -612.323Z" fill="#595657"/>
<path d="M1313.82 -587.687L-288.477 1014.51L-284.156 1018.83L1318.14 -583.367L1313.82 -587.687Z" fill="#595657"/>
<path d="M1338.27 -563.11L-264.023 1039.09L-259.703 1043.41L1342.6 -558.79L1338.27 -563.11Z" fill="#595657"/>
<path d="M1362.92 -538.811L-239.375 1063.39L-235.055 1067.71L1367.24 -534.491L1362.92 -538.811Z" fill="#595657"/>
<path d="M1387.24 -514.176L-215.055 1088.02L-210.734 1092.34L1391.56 -509.855L1387.24 -514.176Z" fill="#595657"/>
<path d="M1412.03 -489.738L-190.266 1112.46L-185.945 1116.78L1416.35 -485.418L1412.03 -489.738Z" fill="#595657"/>
<path d="M1436.35 -465.102L-165.953 1137.09L-161.633 1141.41L1440.67 -460.782L1436.35 -465.102Z" fill="#595657"/>
<path d="M1460.85 -440.665L-141.445 1161.53L-137.125 1165.85L1465.17 -436.345L1460.85 -440.665Z" fill="#595657"/>
<path d="M1485.45 -416.227L-116.852 1185.97L-112.531 1190.29L1489.77 -411.907L1485.45 -416.227Z" fill="#595657"/>
<path d="M1509.96 -391.591L-92.3359 1210.61L-88.0155 1214.93L1514.28 -387.271L1509.96 -391.591Z" fill="#595657"/>
<path d="M1534.27 -367.153L-68.0234 1235.04L-63.7031 1239.36L1538.6 -362.833L1534.27 -367.153Z" fill="#595657"/>
<path d="M1559.06 -342.715L-43.2344 1259.48L-38.914 1263.8L1563.38 -338.395L1559.06 -342.715Z" fill="#595657"/>
<path d="M1583.38 -318.08L-18.9219 1284.12L-14.6015 1288.44L1587.7 -313.76L1583.38 -318.08Z" fill="#595657"/>
<path d="M1608.02 -293.502L5.72656 1308.7L10.0469 1313.02L1612.35 -289.182L1608.02 -293.502Z" fill="#595657"/>
<path d="M1632.48 -269.204L30.1797 1332.99L34.5 1337.31L1636.8 -264.884L1632.48 -269.204Z" fill="#595657"/>
<path d="M1656.99 -244.568L54.6953 1357.63L59.0158 1361.95L1661.31 -240.248L1656.99 -244.568Z" fill="#595657"/>
<path d="M1681.45 -219.99L79.1484 1382.21L83.4689 1386.53L1685.77 -215.67L1681.45 -219.99Z" fill="#595657"/>
<path d="M1705.9 -195.692L103.602 1406.5L107.922 1410.82L1710.22 -191.372L1705.9 -195.692Z" fill="#595657"/>
<path d="M1730.41 -171.057L128.109 1431.14L132.43 1435.46L1734.73 -166.736L1730.41 -171.057Z" fill="#595657"/>
<path d="M1754.86 -146.479L152.562 1455.72L156.883 1460.04L1759.18 -142.159L1754.86 -146.479Z" fill="#595657"/>
<path d="M1779.51 -122.181L177.211 1480.02L181.531 1484.34L1783.83 -117.86L1779.51 -122.181Z" fill="#595657"/>
<path d="M1803.83 -97.5448L201.531 1504.65L205.852 1508.97L1808.15 -93.2246L1803.83 -97.5448Z" fill="#595657"/>
<path d="M1828.48 -72.9677L226.18 1529.23L230.5 1533.55L1832.8 -68.6475L1828.48 -72.9677Z" fill="#595657"/>
<path d="M1852.93 -48.6688L250.633 1553.53L254.953 1557.85L1857.25 -44.3488L1852.93 -48.6688Z" fill="#595657"/>
<path d="M1877.44 -24.0341L275.141 1578.16L279.461 1582.48L1881.76 -19.714L1877.44 -24.0341Z" fill="#595657"/>
<path d="M1902.03 0.404414L299.734 1602.6L304.055 1606.92L1906.35 4.72447L1902.03 0.404414Z" fill="#595657"/>
<path d="M1926.55 25.0392L324.25 1627.24L328.57 1631.56L1930.87 29.3593L1926.55 25.0392Z" fill="#595657"/>
<path d="M1950.86 49.4767L348.562 1651.67L352.883 1655.99L1955.18 53.7967L1950.86 49.4767Z" fill="#595657"/>
<path d="M1975.65 73.9161L373.352 1676.11L377.672 1680.43L1979.97 78.2362L1975.65 73.9161Z" fill="#595657"/>
<path d="M1999.96 98.5509L397.664 1700.75L401.984 1705.07L2004.28 102.871L1999.96 98.5509Z" fill="#595657"/>
<path d="M2024.47 122.988L422.172 1725.19L426.492 1729.51L2028.79 127.308L2024.47 122.988Z" fill="#595657"/>
<path d="M2049.06 147.427L446.766 1749.62L451.086 1753.94L2053.38 151.747L2049.06 147.427Z" fill="#595657"/>
<path d="M2073.58 172.063L471.281 1774.26L475.602 1778.58L2077.9 176.383L2073.58 172.063Z" fill="#595657"/>
<path d="M2098.03 196.641L495.734 1798.84L500.055 1803.16L2102.35 200.961L2098.03 196.641Z" fill="#595657"/>
<path d="M2122.68 220.939L520.383 1823.14L524.703 1827.46L2127 225.259L2122.68 220.939Z" fill="#595657"/>
<path d="M2146.99 245.574L544.695 1847.77L549.016 1852.09L2151.31 249.894L2146.99 245.574Z" fill="#595657"/>
<path d="M2171.65 270.151L569.352 1872.35L573.672 1876.67L2175.97 274.472L2171.65 270.151Z" fill="#595657"/>
<path d="M2196.1 294.45L593.805 1896.65L598.125 1900.97L2200.42 298.77L2196.1 294.45Z" fill="#595657"/>
<path d="M2220.61 319.085L618.312 1921.28L622.633 1925.6L2224.93 323.405L2220.61 319.085Z" fill="#595657"/>
<path d="M2245.06 343.662L642.766 1945.86L647.086 1950.18L2249.38 347.982L2245.06 343.662Z" fill="#595657"/>
<path d="M2269.71 367.962L667.414 1970.16L671.734 1974.48L2274.03 372.282L2269.71 367.962Z" fill="#595657"/>
<path d="M2294.03 392.597L691.734 1994.79L696.055 1999.11L2298.35 396.917L2294.03 392.597Z" fill="#595657"/>
<path d="M2318.68 417.174L716.383 2019.37L720.703 2023.69L2323 421.494L2318.68 417.174Z" fill="#595657"/>
<path d="M2343.13 441.473L740.836 2043.67L745.156 2047.99L2347.45 445.793L2343.13 441.473Z" fill="#595657"/>
</g>
<g style="mix-blend-mode:multiply">
<path d="M825.197 -1076.11L-777.102 526.084L-772.781 530.404L829.517 -1071.79L825.197 -1076.11Z" fill="#595657"/>
<path d="M849.65 -1051.54L-752.648 550.661L-748.328 554.981L853.97 -1047.22L849.65 -1051.54Z" fill="#595657"/>
<path d="M874.298 -1027.04L-728 575.157L-723.68 579.477L878.619 -1022.72L874.298 -1027.04Z" fill="#595657"/>
<path d="M898.611 -1002.6L-703.688 599.596L-699.367 603.916L902.931 -998.281L898.611 -1002.6Z" fill="#595657"/>
<path d="M923.267 -978.024L-679.031 624.173L-674.711 628.493L927.587 -973.704L923.267 -978.024Z" fill="#595657"/>
<path d="M947.72 -953.528L-654.578 648.669L-650.258 652.989L952.04 -949.208L947.72 -953.528Z" fill="#595657"/>
<path d="M972.228 -929.09L-630.07 673.107L-625.75 677.427L976.548 -924.77L972.228 -929.09Z" fill="#595657"/>
<path d="M996.681 -904.513L-605.617 697.685L-601.297 702.005L1001 -900.193L996.681 -904.513Z" fill="#595657"/>
<path d="M1021.34 -880.017L-580.961 722.18L-576.641 726.5L1025.66 -875.697L1021.34 -880.017Z" fill="#595657"/>
<path d="M1045.65 -855.579L-556.648 746.618L-552.328 750.938L1049.97 -851.259L1045.65 -855.579Z" fill="#595657"/>
<path d="M1070.3 -831.002L-532 771.195L-527.68 775.515L1074.62 -826.682L1070.3 -831.002Z" fill="#595657"/>
<path d="M1094.75 -806.506L-507.547 795.691L-503.226 800.012L1099.07 -802.186L1094.75 -806.506Z" fill="#595657"/>
<path d="M1119.27 -782.067L-483.031 820.13L-478.711 824.45L1123.59 -777.747L1119.27 -782.067Z" fill="#595657"/>
<path d="M1143.72 -757.49L-458.578 844.707L-454.258 849.027L1148.04 -753.17L1143.72 -757.49Z" fill="#595657"/>
<path d="M1168.37 -732.994L-433.93 869.203L-429.609 873.523L1172.69 -728.674L1168.37 -732.994Z" fill="#595657"/>
<path d="M1192.68 -708.556L-409.617 893.642L-405.297 897.962L1197 -704.235L1192.68 -708.556Z" fill="#595657"/>
<path d="M1217.33 -683.978L-384.969 918.219L-380.648 922.539L1221.65 -679.658L1217.33 -683.978Z" fill="#595657"/>
<path d="M1241.78 -659.482L-360.516 942.715L-356.195 947.035L1246.1 -655.162L1241.78 -659.482Z" fill="#595657"/>
<path d="M1266.3 -635.045L-336 967.152L-331.68 971.472L1270.62 -630.725L1266.3 -635.045Z" fill="#595657"/>
<path d="M1290.89 -610.605L-311.406 991.592L-307.086 995.912L1295.21 -606.285L1290.89 -610.605Z" fill="#595657"/>
<path d="M1315.4 -585.972L-286.898 1016.23L-282.578 1020.55L1319.72 -581.651L1315.4 -585.972Z" fill="#595657"/>
<path d="M1339.85 -561.393L-262.445 1040.8L-258.125 1045.12L1344.17 -557.073L1339.85 -561.393Z" fill="#595657"/>
<path d="M1364.5 -536.897L-237.797 1065.3L-233.477 1069.62L1368.82 -532.577L1364.5 -536.897Z" fill="#595657"/>
<path d="M1388.82 -512.46L-213.477 1089.74L-209.156 1094.06L1393.14 -508.14L1388.82 -512.46Z" fill="#595657"/>
<path d="M1413.47 -487.882L-188.828 1114.32L-184.508 1118.64L1417.79 -483.562L1413.47 -487.882Z" fill="#595657"/>
<path d="M1437.92 -463.386L-164.375 1138.81L-160.055 1143.13L1442.24 -459.066L1437.92 -463.386Z" fill="#595657"/>
<path d="M1462.43 -438.948L-139.867 1163.25L-135.547 1167.57L1466.75 -434.628L1462.43 -438.948Z" fill="#595657"/>
<path d="M1486.88 -414.37L-115.414 1187.83L-111.094 1192.15L1491.2 -410.05L1486.88 -414.37Z" fill="#595657"/>
<path d="M1511.54 -389.875L-90.7578 1212.32L-86.4375 1216.64L1515.86 -385.555L1511.54 -389.875Z" fill="#595657"/>
<path d="M1535.85 -365.436L-66.4453 1236.76L-62.125 1241.08L1540.17 -361.116L1535.85 -365.436Z" fill="#595657"/>
<path d="M1560.5 -340.859L-41.7969 1261.34L-37.4765 1265.66L1564.82 -336.539L1560.5 -340.859Z" fill="#595657"/>
<path d="M1584.95 -316.363L-17.3438 1285.83L-13.0233 1290.15L1589.27 -312.043L1584.95 -316.363Z" fill="#595657"/>
<path d="M1609.46 -291.925L7.16406 1310.27L11.4844 1314.59L1613.78 -287.605L1609.46 -291.925Z" fill="#595657"/>
<path d="M1633.92 -267.348L31.6172 1334.85L35.9375 1339.17L1638.24 -263.028L1633.92 -267.348Z" fill="#595657"/>
<path d="M1658.57 -242.852L56.2734 1359.35L60.5938 1363.67L1662.89 -238.532L1658.57 -242.852Z" fill="#595657"/>
<path d="M1682.88 -218.413L80.5859 1383.78L84.9063 1388.1L1687.2 -214.093L1682.88 -218.413Z" fill="#595657"/>
<path d="M1707.53 -193.836L105.234 1408.36L109.555 1412.68L1711.85 -189.516L1707.53 -193.836Z" fill="#595657"/>
<path d="M1731.99 -169.34L129.688 1432.86L134.008 1437.18L1736.31 -165.02L1731.99 -169.34Z" fill="#595657"/>
<path d="M1756.5 -144.902L154.203 1457.29L158.523 1461.61L1760.82 -140.582L1756.5 -144.902Z" fill="#595657"/>
<path d="M1780.95 -120.324L178.656 1481.87L182.977 1486.19L1785.27 -116.004L1780.95 -120.324Z" fill="#595657"/>
<path d="M1805.41 -95.828L203.109 1506.37L207.43 1510.69L1809.73 -91.5079L1805.41 -95.828Z" fill="#595657"/>
<path d="M1829.92 -71.3905L227.617 1530.81L231.938 1535.13L1834.24 -67.0703L1829.92 -71.3905Z" fill="#595657"/>
<path d="M1854.51 -46.952L252.211 1555.25L256.531 1559.57L1858.83 -42.6319L1854.51 -46.952Z" fill="#595657"/>
<path d="M1879.02 -22.3163L276.719 1579.88L281.039 1584.2L1883.34 -17.9962L1879.02 -22.3163Z" fill="#595657"/>
<path d="M1903.47 2.25988L301.172 1604.46L305.492 1608.78L1907.79 6.57994L1903.47 2.25988Z" fill="#595657"/>
<path d="M1928.13 26.756L325.828 1628.95L330.148 1633.27L1932.45 31.076L1928.13 26.756Z" fill="#595657"/>
<path d="M1952.44 51.1954L350.141 1653.39L354.461 1657.71L1956.76 55.5155L1952.44 51.1954Z" fill="#595657"/>
<path d="M1977.09 75.7716L374.789 1677.97L379.109 1682.29L1981.41 80.0917L1977.09 75.7716Z" fill="#595657"/>
<path d="M2001.54 100.268L399.242 1702.46L403.563 1706.79L2005.86 104.588L2001.54 100.268Z" fill="#595657"/>
<path d="M2026.05 124.706L423.75 1726.9L428.07 1731.22L2030.37 129.026L2026.05 124.706Z" fill="#595657"/>
<path d="M2050.51 149.283L448.211 1751.48L452.531 1755.8L2054.83 153.603L2050.51 149.283Z" fill="#595657"/>
<path d="M2075.16 173.779L472.859 1775.98L477.18 1780.3L2079.48 178.099L2075.16 173.779Z" fill="#595657"/>
<path d="M2099.47 198.218L497.172 1800.42L501.492 1804.74L2103.79 202.538L2099.47 198.218Z" fill="#595657"/>
<path d="M2124.12 222.795L521.82 1824.99L526.141 1829.31L2128.44 227.115L2124.12 222.795Z" fill="#595657"/>
<path d="M2148.57 247.291L546.273 1849.49L550.594 1853.81L2152.89 251.611L2148.57 247.291Z" fill="#595657"/>
<path d="M2173.09 271.729L570.789 1873.93L575.109 1878.25L2177.41 276.049L2173.09 271.729Z" fill="#595657"/>
<path d="M2197.54 296.307L595.242 1898.5L599.563 1902.82L2201.86 300.627L2197.54 296.307Z" fill="#595657"/>
<path d="M2222.19 320.803L619.891 1923L624.211 1927.32L2226.51 325.123L2222.19 320.803Z" fill="#595657"/>
<path d="M2246.5 345.24L644.203 1947.44L648.524 1951.76L2250.82 349.561L2246.5 345.24Z" fill="#595657"/>
<path d="M2271.15 369.818L668.852 1972.02L673.172 1976.34L2275.47 374.139L2271.15 369.818Z" fill="#595657"/>
<path d="M2295.6 394.315L693.305 1996.51L697.625 2000.83L2299.92 398.635L2295.6 394.315Z" fill="#595657"/>
<path d="M2320.12 418.752L717.82 2020.95L722.141 2025.27L2324.44 423.072L2320.12 418.752Z" fill="#595657"/>
<path d="M2344.71 443.19L742.414 2045.39L746.734 2049.71L2349.03 447.51L2344.71 443.19Z" fill="#595657"/>
</g>
</g>
</g>
</g>
<defs>
<filter id="filter0_f_813_2" x="-523" y="-39" width="2582" height="2582" filterUnits="userSpaceOnUse" color-interpolation-filters="sRGB">
<feFlood flood-opacity="0" result="BackgroundImageFix"/>
<feBlend mode="normal" in="SourceGraphic" in2="BackgroundImageFix" result="shape"/>
<feGaussianBlur stdDeviation="237" result="effect1_foregroundBlur_813_2"/>
</filter>
<radialGradient id="paint0_radial_813_2" cx="0" cy="0" r="1" gradientUnits="userSpaceOnUse" gradientTransform="translate(597.929 881.589) rotate(180) scale(1212.29 1212.22)">
<stop stop-color="#403D3E"/>
<stop offset="1"/>
</radialGradient>
<clipPath id="clip0_813_2">
<rect width="1536" height="954" fill="white"/>
</clipPath>
</defs>
</svg>
