<?xml version="1.0" standalone="no"?>
<!DOCTYPE svg PUBLIC "-//W3C//DTD SVG 20010904//EN"
 "http://www.w3.org/TR/2001/REC-SVG-20010904/DTD/svg10.dtd">
<svg version="1.0" xmlns="http://www.w3.org/2000/svg"
 width="2500.000000pt" height="2504.000000pt" viewBox="0 0 2500.000000 2504.000000"
 preserveAspectRatio="xMidYMid meet">

<g transform="translate(0.000000,2504.000000) scale(0.100000,-0.100000)"
fill="#000000" stroke="none">
<path d="M11383 24939 c-10 -10 -13 -199 -13 -873 0 -671 -3 -867 -13 -886
-14 -28 -8 -26 -327 -75 -96 -15 -200 -33 -231 -41 -116 -29 -150 -16 -169 59
-5 23 -14 56 -20 72 -5 17 -16 57 -24 90 -7 33 -26 105 -41 160 -14 55 -35
132 -45 170 -10 39 -31 115 -45 170 -15 55 -54 204 -86 330 -33 127 -75 285
-94 351 -19 67 -35 132 -35 144 0 14 -20 41 -52 71 -46 43 -57 49 -88 46 -33
-4 -148 -33 -530 -136 -74 -19 -218 -57 -560 -147 -179 -47 -240 -63 -485
-129 -77 -20 -169 -44 -204 -54 -35 -9 -69 -24 -74 -32 -10 -16 6 -82 70 -299
14 -47 31 -107 38 -135 7 -27 29 -111 50 -185 20 -74 45 -164 55 -200 10 -36
30 -105 44 -155 14 -49 35 -121 45 -160 50 -180 86 -308 114 -400 16 -55 32
-117 34 -137 5 -33 2 -39 -28 -58 -19 -11 -65 -32 -104 -47 -38 -14 -176 -73
-305 -130 -156 -69 -242 -102 -257 -99 -14 4 -37 34 -69 93 -26 49 -60 107
-76 130 -15 23 -28 44 -28 47 0 4 -57 106 -126 229 -70 122 -201 353 -292 512
-90 160 -178 313 -194 342 -34 62 -115 133 -151 133 -13 0 -35 -8 -48 -18 -13
-10 -76 -47 -139 -81 -63 -35 -151 -85 -195 -111 -44 -26 -120 -69 -170 -97
-49 -28 -153 -86 -230 -130 -77 -44 -203 -115 -280 -158 -77 -43 -165 -93
-195 -111 -30 -18 -97 -55 -148 -83 -142 -78 -264 -154 -275 -172 -8 -13 -6
-24 9 -44 25 -36 124 -194 165 -265 18 -30 56 -91 84 -135 29 -44 61 -95 71
-113 41 -72 51 -89 86 -143 20 -31 76 -125 125 -210 49 -85 120 -206 158 -269
101 -170 113 -192 130 -229 9 -18 28 -50 41 -71 33 -49 27 -67 -39 -118 -28
-23 -87 -69 -131 -104 -43 -35 -101 -81 -130 -102 -28 -22 -97 -79 -153 -128
-57 -48 -114 -90 -128 -94 -22 -5 -36 3 -93 59 -99 96 -477 480 -809 823 -300
309 -360 362 -387 347 -17 -9 -81 -71 -681 -659 -231 -226 -484 -473 -562
-549 -79 -76 -143 -144 -143 -151 0 -8 118 -132 263 -276 279 -280 809 -818
916 -931 42 -44 64 -75 64 -91 0 -23 -26 -60 -173 -250 -36 -46 -103 -137
-150 -202 -105 -146 -122 -164 -156 -164 -15 0 -64 24 -113 54 -84 53 -290
178 -481 292 -52 31 -111 67 -130 79 -112 72 -401 248 -565 346 -77 45 -149
90 -160 100 -19 17 -37 23 -62 20 -14 -1 -73 -87 -127 -185 -21 -38 -52 -88
-68 -113 -17 -24 -47 -74 -68 -111 -32 -58 -181 -308 -295 -497 -249 -412
-445 -748 -445 -763 0 -21 110 -109 201 -160 94 -54 262 -153 309 -183 49 -31
325 -194 362 -214 37 -20 400 -237 468 -280 19 -13 67 -41 106 -64 40 -22 74
-47 77 -55 7 -17 -10 -68 -76 -231 -25 -60 -59 -146 -77 -190 -73 -185 -114
-277 -128 -292 -9 -9 -26 -13 -41 -10 -23 4 -341 101 -561 171 -41 13 -102 31
-135 41 -33 10 -114 35 -180 56 -119 37 -168 52 -548 169 -113 35 -212 60
-230 58 -30 -3 -32 -5 -58 -103 -15 -55 -53 -188 -84 -295 -73 -247 -89 -303
-121 -420 -35 -125 -38 -136 -140 -485 -116 -400 -145 -504 -150 -540 -4 -26
3 -36 43 -71 57 -49 86 -58 588 -198 66 -18 161 -46 210 -61 50 -15 122 -36
160 -46 106 -28 312 -87 380 -108 33 -10 112 -33 175 -51 158 -44 160 -46 160
-123 0 -34 -7 -109 -16 -167 -8 -58 -21 -161 -29 -230 -28 -240 -40 -290 -73
-290 -92 0 -892 32 -1007 40 -82 6 -285 15 -450 20 -263 9 -301 8 -314 -5 -12
-12 -16 -44 -18 -143 -7 -434 -24 -1420 -26 -1486 -1 -53 -6 -81 -15 -84 -9
-3 -12 -36 -12 -122 l0 -119 36 -7 c20 -4 52 -20 71 -37 29 -25 44 -31 91 -33
70 -2 1103 -22 1415 -27 255 -4 251 -3 268 -76 5 -22 18 -110 29 -193 11 -84
27 -198 35 -253 20 -135 19 -178 -2 -197 -16 -13 -202 -61 -433 -113 -36 -8
-110 -25 -165 -38 -55 -14 -145 -35 -200 -47 -55 -13 -183 -43 -285 -67 -102
-24 -264 -62 -360 -84 -240 -56 -262 -62 -273 -81 -8 -12 -1 -55 26 -165 20
-81 55 -224 77 -318 23 -93 59 -242 80 -330 22 -88 51 -209 65 -270 13 -60 31
-135 40 -165 8 -30 29 -116 46 -190 77 -326 109 -445 126 -455 9 -5 31 -25 49
-44 38 -40 28 -41 284 23 602 151 1261 309 1418 341 51 10 68 -12 129 -165 14
-36 31 -78 38 -95 91 -209 145 -349 145 -377 0 -14 -8 -31 -17 -40 -21 -17 -7
-9 -598 -308 -720 -364 -929 -471 -947 -488 -23 -20 -23 -43 1 -73 10 -13 44
-74 76 -134 31 -61 85 -161 119 -223 75 -139 81 -149 199 -369 52 -98 107
-200 122 -228 15 -27 40 -72 55 -100 14 -27 54 -99 87 -160 33 -60 84 -155
113 -210 89 -171 127 -229 174 -267 24 -21 50 -38 57 -38 10 0 209 102 234
120 6 4 51 29 100 55 136 73 456 245 585 315 63 34 167 89 230 122 63 33 131
71 150 83 19 13 47 29 62 36 15 8 63 33 108 57 44 23 91 42 103 42 26 0 51
-25 118 -115 25 -33 76 -100 114 -150 38 -49 85 -113 105 -141 19 -28 48 -67
64 -87 20 -26 27 -44 22 -60 -3 -13 -45 -56 -93 -97 -48 -41 -151 -133 -228
-205 -77 -71 -176 -161 -220 -200 -44 -38 -154 -137 -243 -220 -90 -82 -183
-166 -205 -185 -56 -46 -265 -236 -299 -271 -20 -21 -25 -34 -20 -48 4 -10
104 -122 222 -247 118 -125 251 -266 295 -313 44 -47 154 -165 246 -261 91
-96 219 -233 285 -305 182 -199 340 -355 358 -355 19 0 134 104 541 491 149
141 298 280 332 310 34 30 148 136 253 236 105 101 202 186 216 189 34 9 102
-39 412 -290 118 -95 144 -128 126 -158 -4 -7 -45 -70 -91 -140 -202 -310
-254 -390 -328 -503 -43 -66 -92 -142 -110 -170 -97 -149 -193 -297 -287 -440
-58 -88 -113 -175 -124 -192 l-18 -33 43 -44 c24 -24 72 -61 107 -81 36 -21
67 -42 70 -46 2 -4 30 -22 62 -40 31 -18 86 -51 122 -74 36 -23 85 -54 110
-69 25 -15 72 -44 105 -66 33 -22 69 -44 80 -49 11 -5 43 -24 70 -42 28 -19
89 -58 135 -87 47 -29 150 -94 230 -144 80 -50 168 -104 195 -121 28 -16 73
-44 100 -62 239 -154 278 -176 303 -173 27 3 45 27 142 183 71 114 108 174
202 320 58 91 111 176 173 276 28 45 73 117 100 160 28 44 62 98 76 122 14 23
61 98 104 167 43 69 92 148 108 175 70 116 78 125 112 125 20 0 112 -37 236
-94 112 -51 215 -97 229 -101 14 -4 51 -21 83 -36 47 -25 57 -34 57 -55 0 -22
-135 -456 -215 -689 -13 -38 -63 -191 -110 -340 -48 -148 -114 -352 -148 -453
l-61 -183 48 -44 c54 -48 80 -60 206 -98 47 -14 171 -52 275 -85 105 -33 267
-83 360 -112 94 -28 202 -62 240 -75 39 -13 147 -47 240 -75 142 -43 342 -105
530 -165 25 -8 46 -10 56 -4 10 5 26 41 38 81 12 40 30 100 40 133 11 33 38
121 61 195 23 74 45 146 50 160 5 14 23 72 40 130 31 106 85 280 165 530 23
74 49 158 58 185 8 28 27 91 42 140 47 159 54 174 82 181 14 4 62 2 107 -4
100 -14 312 -48 346 -56 14 -4 74 -13 134 -20 72 -10 114 -20 125 -31 14 -14
16 -48 14 -268 -1 -139 -7 -319 -12 -402 -6 -82 -15 -287 -21 -455 -5 -168
-14 -386 -20 -484 -7 -124 -7 -183 1 -192 6 -8 47 -13 116 -16 74 -2 108 -7
111 -15 3 -10 187 -13 876 -13 l873 0 7 213 c4 116 11 284 16 372 5 88 16 336
25 550 23 587 26 633 43 647 16 14 61 19 292 38 80 6 206 20 281 32 104 15
142 17 158 9 20 -11 34 -49 47 -122 3 -18 14 -70 24 -114 25 -104 54 -235 80
-360 12 -55 28 -127 36 -160 7 -33 29 -134 48 -225 19 -91 53 -248 76 -350 22
-102 50 -225 61 -275 11 -50 22 -100 24 -112 11 -51 40 -48 405 37 47 11 148
33 225 49 77 17 210 46 295 65 153 34 420 92 655 142 333 71 385 85 399 106 8
13 7 26 -2 50 -7 18 -33 105 -58 193 -25 88 -56 196 -69 240 -46 155 -123 472
-190 785 -13 58 -33 150 -45 205 -12 55 -28 129 -36 165 -8 36 -17 77 -20 92
-9 41 23 63 156 103 25 8 128 46 230 85 102 39 212 82 245 94 39 15 67 21 81
16 14 -6 53 -72 124 -212 56 -111 143 -282 193 -378 49 -96 129 -251 177 -345
333 -652 329 -645 356 -645 7 0 41 15 76 33 35 19 216 112 403 207 353 179
763 389 945 482 58 30 143 74 190 98 47 24 95 52 108 63 27 25 29 71 3 113
-10 17 -22 41 -26 54 -4 13 -68 156 -141 318 -74 162 -134 296 -134 298 0 1
-18 41 -39 87 -22 47 -54 120 -71 163 -17 43 -35 83 -39 89 -11 13 -83 175
-126 280 -18 44 -54 122 -79 174 -25 52 -46 105 -46 118 0 29 6 34 170 149 74
51 176 123 225 159 50 36 99 65 111 65 23 0 72 -50 249 -249 61 -68 166 -185
234 -260 69 -75 175 -193 235 -262 61 -69 173 -193 248 -276 75 -82 158 -175
184 -206 28 -35 54 -57 66 -57 19 0 110 77 258 216 30 29 74 68 98 88 24 20
127 111 229 203 272 247 518 468 707 637 91 82 166 156 166 164 0 14 -34 54
-290 335 -74 82 -157 175 -185 208 -27 32 -112 127 -189 211 -76 84 -170 189
-210 233 -39 43 -126 139 -193 213 -150 163 -150 163 -60 261 82 90 251 289
305 360 67 87 93 111 122 111 15 0 64 -25 115 -59 50 -32 191 -125 315 -206
124 -81 268 -175 320 -210 52 -34 174 -114 270 -177 96 -63 229 -150 295 -193
66 -44 126 -85 133 -92 15 -14 41 -17 57 -5 9 6 226 329 281 418 10 17 37 58
58 90 72 107 248 377 327 499 43 66 92 140 109 165 17 25 72 108 122 185 50
77 108 165 129 197 22 31 39 62 39 70 0 7 -93 75 -207 150 -280 185 -681 447
-958 626 -71 47 -141 93 -155 103 -14 10 -45 30 -70 45 -65 39 -100 74 -100
102 0 14 25 77 56 141 30 64 84 176 120 250 35 73 64 138 64 144 0 25 57 120
77 128 15 6 48 0 105 -17 73 -21 563 -185 643 -214 17 -6 152 -51 300 -100
149 -49 343 -114 433 -145 167 -56 187 -61 210 -47 7 5 150 419 318 922 270
809 303 915 290 928 -13 13 -276 109 -361 131 -28 8 -996 328 -1060 352 -16 5
-77 26 -135 45 -57 19 -110 40 -118 47 -16 13 -14 29 18 177 30 139 90 484 90
520 0 17 9 39 20 50 25 25 76 26 280 4 80 -8 244 -19 365 -24 121 -6 265 -15
320 -20 55 -6 186 -14 290 -20 105 -5 246 -14 315 -20 69 -7 139 -10 155 -8
l30 3 11 234 c7 161 14 236 22 239 9 3 12 193 12 752 l0 748 -47 6 c-27 3
-115 8 -198 11 -82 4 -220 13 -305 20 -85 8 -258 19 -385 25 -126 6 -275 15
-330 21 -55 6 -169 14 -253 17 -179 9 -182 10 -182 101 0 31 -7 126 -15 211
-31 318 -36 441 -20 466 15 23 17 24 205 60 47 9 128 25 180 35 52 10 136 26
186 34 51 8 103 19 115 23 13 5 47 12 74 16 28 4 77 14 110 21 33 8 121 26
195 40 74 14 216 41 315 61 99 20 204 40 234 44 66 11 81 23 81 65 0 28 -87
491 -150 795 -10 52 -26 133 -35 180 -9 47 -23 117 -31 155 -8 39 -27 140 -44
225 -16 85 -37 189 -45 230 -8 41 -24 120 -35 175 -13 61 -27 107 -38 118 -17
17 -22 17 -77 2 -33 -8 -68 -15 -80 -15 -11 0 -60 -9 -110 -20 -49 -10 -139
-29 -200 -41 -60 -12 -148 -29 -195 -39 -47 -10 -118 -23 -159 -30 -40 -6 -82
-15 -92 -20 -10 -6 -30 -10 -45 -10 -14 0 -65 -9 -113 -19 -110 -24 -234 -49
-336 -67 -44 -7 -107 -20 -140 -28 -103 -26 -170 -28 -195 -8 -15 12 -46 91
-104 262 -45 135 -95 274 -111 310 -15 36 -28 83 -29 105 l-1 40 140 70 c77
39 257 127 400 197 143 70 375 183 515 251 266 130 366 178 437 208 71 30 71
42 4 176 -32 65 -81 165 -109 223 -27 58 -98 203 -156 323 -58 120 -106 220
-106 222 0 2 -94 195 -210 429 -178 363 -212 426 -230 426 -12 0 -63 -20 -113
-45 -405 -198 -718 -350 -802 -390 -187 -89 -370 -177 -508 -246 -76 -38 -146
-69 -156 -69 -21 0 -59 40 -91 95 -13 22 -32 51 -43 65 -10 14 -51 75 -91 135
-83 128 -135 201 -185 267 -20 25 -44 59 -53 75 -10 15 -36 51 -58 78 -22 28
-40 60 -40 72 0 15 27 46 82 95 44 40 136 123 203 183 66 61 157 141 201 180
43 38 144 128 224 200 80 72 183 164 230 205 47 40 128 113 180 161 52 48 107
97 122 108 45 36 44 54 -9 119 -26 33 -120 140 -208 238 -88 98 -221 245 -295
328 -74 83 -173 192 -220 244 -47 52 -110 123 -140 158 -264 303 -378 424
-400 424 -5 0 -89 -73 -188 -162 -99 -90 -248 -224 -332 -298 -83 -74 -231
-206 -328 -293 -378 -337 -461 -407 -481 -407 -11 0 -53 28 -92 63 -40 34 -93
79 -118 100 -25 21 -57 48 -71 60 -67 60 -213 179 -278 226 -41 31 -75 64 -78
77 -7 27 -4 33 100 193 45 69 100 155 122 191 114 180 182 288 296 465 36 55
109 170 163 255 54 85 129 202 167 259 37 57 68 110 68 118 0 14 -36 42 -136
107 -32 21 -169 111 -304 200 -217 144 -342 228 -824 553 -66 45 -181 122
-254 172 -75 52 -142 91 -156 91 -18 0 -32 -14 -62 -62 -22 -35 -66 -104 -99
-154 -33 -51 -72 -114 -88 -140 -15 -27 -38 -63 -50 -81 -32 -47 -55 -83 -152
-238 -48 -77 -107 -169 -130 -205 -23 -36 -59 -92 -80 -125 -39 -61 -109 -171
-239 -370 -90 -139 -89 -139 -253 -60 -65 31 -174 82 -243 112 -69 30 -163 71
-210 93 -47 21 -112 48 -145 60 -79 28 -105 46 -105 71 0 20 21 92 105 364 19
61 55 178 80 260 120 389 148 475 259 795 26 74 53 156 60 181 8 26 22 61 32
78 16 27 16 33 4 45 -12 11 -431 147 -710 231 -25 7 -144 45 -265 84 -121 38
-292 92 -380 120 -88 27 -234 73 -325 102 -91 29 -178 53 -195 53 -30 1 -30 1
-77 -144 -26 -80 -68 -212 -93 -295 -107 -347 -127 -412 -140 -450 -14 -42
-73 -234 -107 -345 -11 -36 -28 -90 -39 -120 -10 -30 -39 -122 -65 -205 -25
-82 -54 -158 -63 -169 -14 -16 -26 -18 -106 -12 -49 4 -126 13 -170 21 -44 8
-103 14 -131 15 -28 0 -103 9 -165 19 -63 11 -147 22 -186 26 -156 14 -395 53
-410 67 -12 12 -14 139 -13 865 0 830 0 850 -19 875 l-20 25 -338 7 c-186 4
-520 9 -743 11 -223 3 -520 7 -660 10 -197 5 -258 3 -267 -6z m1357 -2854
c107 -14 224 -29 260 -35 36 -5 168 -12 295 -15 126 -4 273 -13 325 -21 52 -7
133 -18 180 -24 122 -14 272 -39 370 -60 170 -38 236 -48 295 -47 38 0 91 -9
145 -25 136 -42 447 -134 550 -163 52 -15 136 -40 185 -55 50 -15 119 -35 155
-45 185 -50 331 -100 535 -184 241 -99 313 -129 343 -144 15 -8 47 -23 72 -34
74 -34 301 -138 355 -163 28 -13 108 -49 179 -80 120 -52 130 -58 141 -90 7
-20 23 -40 36 -47 81 -39 221 -103 225 -103 3 0 35 -14 72 -31 37 -18 86 -40
109 -50 23 -10 103 -64 178 -121 75 -57 151 -114 170 -128 18 -14 66 -50 106
-81 79 -60 270 -201 464 -343 66 -48 135 -99 154 -114 19 -15 54 -41 78 -58
24 -17 128 -110 231 -206 103 -96 212 -196 242 -223 153 -134 333 -313 428
-425 59 -69 181 -210 272 -315 91 -104 204 -235 250 -290 47 -55 132 -154 191
-220 105 -120 179 -218 179 -238 0 -11 149 -283 179 -326 9 -13 31 -29 50 -35
34 -11 61 -53 145 -221 14 -27 48 -91 75 -142 28 -50 123 -237 211 -415 89
-178 176 -350 192 -383 17 -32 41 -86 54 -120 12 -33 38 -103 59 -155 20 -52
54 -142 75 -200 21 -58 51 -136 66 -175 14 -38 46 -124 69 -190 24 -66 68
-186 99 -267 31 -80 56 -149 56 -153 0 -4 14 -38 30 -76 28 -62 56 -175 95
-379 8 -41 23 -120 35 -175 12 -55 28 -136 36 -179 8 -44 18 -96 24 -115 17
-65 41 -253 56 -426 17 -203 28 -281 49 -355 60 -208 65 -241 76 -470 13 -295
13 -322 -1 -414 -13 -84 -18 -470 -11 -781 4 -152 2 -204 -11 -260 -9 -38 -19
-104 -23 -145 -3 -41 -12 -113 -20 -160 -7 -47 -21 -146 -30 -220 -48 -394
-194 -1054 -326 -1470 -27 -85 -49 -158 -49 -162 0 -4 -30 -90 -66 -190 -37
-101 -71 -203 -76 -228 -4 -25 -21 -72 -37 -105 -51 -106 -163 -358 -186 -420
-28 -75 -81 -196 -127 -295 -20 -41 -39 -91 -42 -110 -3 -19 -15 -43 -25 -55
-10 -11 -46 -92 -80 -180 -35 -88 -69 -167 -77 -176 -13 -15 -40 -63 -86 -154
-11 -22 -28 -51 -38 -65 -9 -14 -33 -55 -52 -92 -20 -36 -75 -119 -124 -183
-99 -130 -102 -134 -228 -305 -48 -66 -92 -120 -96 -120 -5 0 -22 -24 -39 -52
-17 -29 -52 -78 -76 -108 -25 -30 -54 -71 -64 -91 -11 -20 -36 -48 -55 -63
-20 -15 -36 -35 -36 -44 0 -27 -213 -305 -331 -432 -57 -62 -167 -180 -244
-262 -77 -82 -185 -198 -240 -257 -55 -60 -163 -162 -240 -227 -77 -64 -163
-138 -191 -163 -27 -25 -108 -95 -180 -156 -71 -60 -186 -159 -255 -220 -251
-218 -302 -261 -373 -310 -40 -27 -83 -58 -96 -68 -14 -10 -43 -29 -65 -44
-22 -14 -76 -51 -120 -81 -44 -30 -174 -103 -290 -162 -237 -121 -303 -156
-495 -260 -299 -162 -589 -300 -780 -371 -107 -40 -240 -89 -295 -109 -55 -21
-163 -61 -240 -89 -77 -29 -158 -58 -180 -66 -420 -138 -765 -230 -1155 -310
-91 -18 -264 -54 -385 -79 -210 -43 -232 -45 -485 -56 -146 -6 -292 -15 -325
-20 -290 -45 -406 -52 -830 -53 -259 0 -451 4 -500 11 -178 25 -654 87 -875
113 -52 6 -133 17 -180 24 -47 8 -132 19 -188 25 -57 6 -143 23 -190 37 -48
13 -127 36 -177 50 -49 13 -133 37 -185 53 -52 16 -174 52 -270 80 -96 28
-212 62 -258 76 -46 14 -169 49 -272 79 -104 30 -213 65 -242 79 -29 14 -98
43 -153 64 -55 22 -183 75 -285 117 -102 42 -201 82 -220 90 -19 7 -87 36
-150 65 -63 29 -146 66 -184 84 -152 68 -191 91 -204 119 -18 36 -26 41 -252
143 -190 85 -226 105 -333 190 -29 22 -86 64 -127 92 -41 29 -104 75 -140 102
-36 27 -114 86 -175 130 -167 122 -240 176 -391 289 -77 57 -155 116 -174 130
-19 14 -96 82 -170 151 -74 69 -157 145 -185 169 -27 25 -112 104 -188 175
-77 72 -145 134 -152 139 -15 8 -227 243 -332 367 -105 126 -341 397 -481 556
-68 76 -147 166 -176 199 -28 33 -75 105 -103 160 -28 55 -60 116 -72 135 -11
19 -32 57 -47 85 -49 92 -75 124 -110 135 -28 10 -40 24 -72 88 -21 43 -45 89
-54 102 -28 45 -155 274 -184 330 -15 30 -58 110 -95 177 -73 129 -309 597
-309 610 0 4 -9 30 -20 58 -10 27 -31 82 -45 120 -51 139 -79 210 -86 220 -3
6 -12 28 -18 50 -7 22 -19 56 -26 75 -8 19 -30 80 -50 135 -20 55 -47 125 -60
155 -42 100 -149 424 -156 475 -3 28 -16 86 -29 130 -41 150 -108 438 -145
630 -15 77 -36 185 -47 240 -22 110 -43 220 -59 305 -17 93 -29 190 -35 295
-3 55 -14 136 -24 180 -19 75 -20 118 -17 720 1 492 -1 656 -11 710 -12 65
-11 83 12 220 28 166 52 346 71 535 20 192 45 341 61 364 13 19 14 13 14 -54
0 -41 -7 -100 -15 -130 -16 -59 -19 -108 -8 -135 9 -24 63 168 63 225 0 25 9
79 20 120 11 41 20 99 20 128 0 29 7 69 16 90 36 86 82 392 55 367 -6 -6 -14
-33 -17 -60 -4 -28 -15 -63 -24 -80 -10 -16 -23 -63 -29 -104 -6 -40 -18 -85
-27 -100 -14 -24 -15 -21 -10 56 3 47 12 93 20 105 8 13 18 50 22 83 3 33 15
82 25 108 11 26 19 65 19 87 0 22 9 62 20 90 11 28 20 59 20 68 0 10 8 33 18
52 11 19 22 59 25 89 4 30 13 62 22 70 13 14 15 9 15 -44 -1 -36 -6 -68 -15
-79 -16 -21 -30 -118 -21 -143 11 -27 26 3 26 52 0 22 9 57 20 77 11 21 23 57
26 80 4 24 15 57 25 74 11 17 19 44 19 59 0 15 8 42 19 59 10 17 24 53 30 81
7 27 17 56 23 63 6 7 14 29 19 50 17 81 42 160 69 219 34 71 70 175 70 199 0
8 14 48 31 87 16 40 34 81 39 92 16 38 19 55 11 55 -21 0 -80 -103 -95 -164
-4 -16 -16 -41 -27 -54 -10 -14 -19 -31 -19 -39 0 -7 -6 -24 -14 -36 -8 -12
-17 -38 -20 -57 -4 -19 -17 -64 -30 -100 -13 -36 -29 -81 -35 -100 -7 -19 -26
-72 -42 -117 -16 -46 -29 -91 -29 -102 0 -10 -9 -29 -20 -42 l-19 -24 -1 37
c0 20 9 60 19 90 10 29 33 103 50 163 53 186 119 363 186 501 25 50 45 100 45
110 0 11 6 28 14 39 7 11 28 54 46 95 18 41 39 82 46 91 8 8 14 21 14 28 0 7
12 38 26 69 65 141 87 192 135 315 83 214 107 266 180 388 38 63 69 120 69
126 0 6 7 16 15 23 8 7 24 31 34 54 10 22 43 74 72 114 30 40 69 94 87 120 17
26 52 67 76 92 23 25 56 68 71 95 16 28 47 68 68 90 22 22 50 56 63 75 13 19
37 53 53 75 17 22 38 51 48 65 10 14 46 63 81 110 35 47 82 111 105 143 23 32
67 90 97 130 31 40 68 93 83 120 15 26 39 55 53 63 14 9 82 80 152 158 69 78
144 159 167 181 22 22 91 97 153 167 125 139 246 259 364 358 99 84 340 292
399 344 25 23 76 66 113 96 67 54 194 162 311 264 33 28 76 63 95 76 19 13 44
32 54 43 11 11 69 53 130 94 61 40 129 86 151 102 69 49 171 111 245 149 39
20 153 83 253 138 100 56 238 130 307 164 69 34 184 96 257 136 146 81 215
114 313 149 36 13 133 53 215 90 533 236 1243 463 1830 585 661 136 624 131
938 145 158 8 296 16 305 19 62 19 363 44 797 65 17 0 118 -10 225 -24z m8397
-852 c11 -10 49 -52 84 -93 35 -41 129 -147 209 -235 80 -88 172 -192 205
-230 33 -38 112 -126 175 -196 200 -219 310 -347 310 -362 0 -14 -96 -106
-280 -267 -47 -41 -132 -118 -190 -170 -58 -53 -177 -159 -264 -235 -88 -77
-196 -174 -240 -215 -45 -42 -113 -104 -153 -138 -40 -35 -75 -73 -79 -85 -4
-12 -18 -36 -31 -54 -28 -36 -29 -32 41 -122 28 -36 71 -93 96 -127 25 -34 84
-116 132 -182 48 -66 150 -216 227 -333 77 -118 147 -224 156 -236 18 -26 51
-29 79 -8 27 20 31 19 66 -15 24 -23 37 -29 53 -24 12 4 121 55 242 114 121
59 360 175 530 258 171 82 390 189 487 236 113 56 185 85 196 82 12 -4 53 -76
115 -204 53 -108 200 -410 326 -671 127 -260 231 -479 231 -486 0 -22 -35 -44
-206 -126 -186 -89 -342 -165 -719 -349 -137 -67 -314 -153 -392 -191 -79 -38
-143 -73 -143 -79 0 -5 -16 -27 -35 -49 -19 -21 -35 -43 -35 -47 0 -5 25 -72
55 -149 70 -176 208 -571 242 -690 32 -113 44 -128 96 -120 34 6 43 3 68 -21
l29 -27 317 62 c175 34 361 71 413 81 384 77 763 150 805 155 39 6 54 4 64 -8
13 -16 23 -63 136 -642 114 -579 145 -736 156 -782 10 -37 9 -46 -6 -63 -9
-10 -29 -21 -44 -24 -26 -5 -677 -133 -1256 -246 -165 -33 -317 -62 -337 -66
-62 -10 -64 -18 -45 -172 23 -183 55 -572 62 -757 8 -200 5 -191 60 -198 28
-3 55 -13 69 -26 20 -19 43 -22 247 -36 123 -8 397 -25 609 -39 556 -36 712
-46 738 -46 12 0 31 -9 43 -21 17 -17 20 -28 15 -67 -6 -46 -31 -415 -61 -897
-23 -368 -34 -522 -41 -539 -11 -27 -47 -29 -292 -12 -130 9 -453 29 -717 46
-264 16 -507 32 -540 36 -64 6 -182 -9 -198 -25 -6 -6 -16 -47 -23 -93 -53
-348 -56 -367 -151 -836 -19 -95 -14 -113 34 -123 44 -9 53 -17 53 -48 0 -16
6 -33 13 -39 6 -5 345 -121 752 -257 407 -136 748 -252 757 -257 29 -14 39
-43 27 -75 -6 -15 -112 -329 -236 -697 -123 -369 -229 -676 -235 -683 -6 -7
-20 -13 -31 -13 -11 0 -297 93 -636 206 -781 261 -977 324 -1005 324 -20 0
-35 -28 -121 -222 -54 -123 -149 -328 -211 -456 -62 -128 -110 -240 -107 -248
3 -8 22 -23 42 -34 62 -31 69 -46 43 -90 -12 -21 -19 -45 -17 -52 3 -7 27 -27
53 -45 43 -29 373 -245 637 -418 308 -202 508 -333 583 -382 54 -36 82 -61 82
-74 0 -10 -57 -105 -127 -211 -69 -106 -169 -258 -221 -338 -106 -162 -263
-401 -391 -592 -64 -98 -89 -128 -106 -128 -11 0 -119 64 -238 143 -119 78
-303 199 -409 268 -106 69 -265 173 -353 231 -393 257 -364 241 -405 216 -17
-11 -27 -9 -60 10 -21 12 -47 22 -57 22 -11 0 -43 -31 -78 -77 -101 -129 -292
-360 -427 -515 -70 -80 -128 -153 -128 -161 0 -7 18 -30 40 -51 42 -39 51 -74
25 -96 -8 -7 -15 -18 -15 -26 0 -7 44 -62 98 -122 53 -60 187 -210 296 -333
110 -123 245 -273 301 -334 55 -60 136 -150 180 -200 44 -49 108 -120 142
-157 35 -36 63 -74 63 -83 0 -9 -21 -35 -47 -58 -26 -23 -77 -69 -113 -102
-109 -100 -324 -292 -480 -430 -80 -71 -213 -191 -294 -265 -81 -74 -160 -143
-176 -153 -36 -23 -51 -16 -110 55 -25 29 -117 132 -205 228 -88 97 -232 257
-320 355 -88 99 -219 245 -292 325 -72 81 -138 163 -146 183 -26 60 -109 157
-135 157 -13 0 -52 -21 -85 -47 -291 -222 -498 -371 -539 -387 -20 -7 -31 -7
-39 1 -15 15 -150 313 -156 344 -6 31 22 56 197 174 137 93 209 149 349 270
57 49 125 108 151 130 26 22 80 76 121 120 231 249 338 353 579 557 65 54 110
109 263 315 61 83 130 171 152 195 22 23 104 112 183 197 124 133 207 237 382
476 51 69 98 142 166 260 181 314 166 288 253 433 109 183 168 299 268 522
100 224 243 565 243 579 0 4 8 15 18 24 21 19 40 59 112 237 28 69 57 139 65
155 14 33 75 226 125 400 17 61 37 128 45 150 7 22 32 105 55 185 77 267 132
454 155 530 42 136 65 252 89 446 18 141 30 201 46 232 35 66 90 554 90 798 0
108 6 170 44 460 22 175 24 207 16 375 -10 197 -24 378 -40 499 -5 41 -16 138
-25 215 -8 77 -24 219 -35 315 -11 96 -29 256 -40 355 -29 268 -46 382 -85
570 -20 94 -49 238 -66 320 -72 356 -73 363 -169 615 -28 74 -75 200 -105 280
-30 80 -75 199 -100 265 -26 66 -55 145 -65 175 -37 113 -122 327 -155 395
-19 39 -73 140 -120 225 -47 85 -139 261 -204 390 -123 244 -198 388 -211 405
-4 6 -29 51 -55 100 -67 127 -130 227 -255 405 -60 85 -170 246 -246 358 -182
268 -423 545 -707 811 -113 106 -207 196 -209 201 -4 12 -163 194 -237 272
-56 60 -136 123 -403 324 -77 58 -298 266 -298 281 0 5 17 36 38 69 21 32 101
157 176 277 115 181 142 217 161 217 14 0 63 -32 126 -82 227 -183 232 -187
477 -405 65 -58 124 -103 135 -103 11 0 29 7 38 16 10 9 39 26 63 38 25 11
102 73 173 137 120 109 207 187 754 675 118 105 230 205 249 222 40 36 69 40
97 15z m-18026 -6164 c-10 -23 -10 -23 -10 7 -1 17 2 34 7 38 11 12 14 -18 3
-45z m-240 -1032 c-6 -15 -15 -27 -21 -27 -14 0 -13 56 2 83 l11 22 9 -26 c5
-16 5 -37 -1 -52z"/>
<path d="M11848 21873 c-10 -2 -18 -9 -18 -14 0 -6 110 -8 283 -7 184 2 280 6
277 13 -5 10 -506 17 -542 8z"/>
<path d="M12657 21874 c-18 -18 17 -24 146 -24 113 0 139 3 129 13 -14 13
-263 23 -275 11z"/>
<path d="M13022 21853 c-20 -3 -32 -9 -29 -16 5 -15 136 -24 367 -26 142 -1
180 -4 198 -17 26 -18 198 -40 238 -30 47 12 9 24 -117 37 -63 6 -117 13 -121
15 -12 8 -189 26 -288 29 -52 2 -122 6 -155 8 -33 2 -75 2 -93 0z"/>
<path d="M11555 21830 c-8 -13 20 -24 40 -16 8 3 15 10 15 16 0 13 -47 13 -55
0z"/>
<path d="M11466 21823 c-4 -4 -33 -8 -64 -10 -106 -4 -211 -18 -222 -29 -17
-17 31 -26 82 -15 24 5 66 9 93 8 34 0 66 7 98 22 26 13 47 25 47 27 0 7 -26
4 -34 -3z"/>
<path d="M11004 21770 c-11 -4 -71 -11 -133 -15 -115 -8 -148 -19 -86 -31 37
-7 265 14 285 26 7 4 9 13 6 19 -8 13 -42 13 -72 1z"/>
<path d="M13880 21755 c0 -16 16 -21 95 -29 57 -7 125 6 90 17 -16 5 -164 27
-181 27 -2 0 -4 -7 -4 -15z"/>
<path d="M14187 21709 c16 -16 139 -30 168 -19 18 6 17 8 -10 13 -16 3 -61 9
-100 12 -57 6 -68 4 -58 -6z"/>
<path d="M10575 21700 c-18 -7 -19 -8 -2 -15 9 -4 29 -4 44 0 21 5 24 8 12 16
-17 10 -27 10 -54 -1z"/>
<path d="M10385 21663 c-50 -12 -37 -24 24 -21 40 2 66 8 69 16 4 12 -50 15
-93 5z"/>
<path d="M14487 21664 c-13 -13 5 -24 39 -24 38 0 46 15 12 24 -30 8 -43 7
-51 0z"/>
<path d="M14612 21633 c-10 -4 -10 -8 -1 -19 13 -16 99 -19 99 -4 0 21 -66 36
-98 23z"/>
<path d="M10230 21620 c-12 -8 -12 -10 3 -16 20 -7 47 1 47 16 0 12 -30 13
-50 0z"/>
<path d="M10078 21589 c-27 -15 -21 -31 10 -27 15 2 27 9 27 17 0 19 -16 23
-37 10z"/>
<path d="M14770 21582 c0 -9 80 -23 89 -15 8 6 -4 11 -46 18 -26 4 -43 3 -43
-3z"/>
<path d="M9944 21546 c-19 -14 -19 -15 0 -22 20 -8 47 5 54 24 5 17 -30 15
-54 -2z"/>
<path d="M14927 21551 c-29 -11 -1 -27 61 -35 29 -4 73 -16 96 -28 30 -14 52
-19 71 -14 16 4 24 11 19 15 -8 8 -216 72 -225 70 -2 0 -12 -4 -22 -8z"/>
<path d="M9865 21523 c-11 -2 -33 -9 -49 -15 -28 -11 -28 -12 -7 -20 24 -8 49
1 71 26 7 9 11 15 9 15 -2 -1 -13 -3 -24 -6z"/>
<path d="M9659 21460 l-24 -19 28 -1 c34 0 70 17 62 31 -10 15 -41 10 -66 -11z"/>
<path d="M15266 21463 c-3 -3 -3 -10 0 -14 7 -12 44 -12 44 0 0 10 -36 21 -44
14z"/>
<path d="M9505 21418 c-16 -6 -50 -18 -75 -28 -47 -19 -111 -38 -144 -42 -11
-2 -21 -9 -24 -16 -6 -20 80 -7 121 18 18 11 46 20 63 20 16 0 35 5 42 12 6 6
30 14 53 17 49 7 67 32 22 30 -15 -1 -41 -6 -58 -11z"/>
<path d="M15400 21405 c13 -16 80 -21 80 -6 0 8 -47 21 -77 21 -13 0 -13 -3
-3 -15z"/>
<path d="M15565 21360 c3 -5 13 -10 21 -10 8 0 14 5 14 10 0 6 -9 10 -21 10
-11 0 -17 -4 -14 -10z"/>
<path d="M15670 21330 c0 -14 37 -31 54 -24 20 8 20 20 0 28 -24 9 -54 7 -54
-4z"/>
<path d="M15815 21280 c3 -5 10 -10 16 -10 5 0 9 5 9 10 0 6 -7 10 -16 10 -8
0 -12 -4 -9 -10z"/>
<path d="M9048 21269 c-28 -16 -21 -29 15 -29 31 0 57 14 57 32 0 11 -52 9
-72 -3z"/>
<path d="M15890 21246 c0 -19 39 -31 53 -17 9 9 8 14 -3 21 -22 14 -50 12 -50
-4z"/>
<path d="M8936 21221 c-11 -13 -14 -21 -7 -26 16 -9 45 2 66 25 18 19 17 20
-12 20 -17 0 -37 -8 -47 -19z"/>
<path d="M16028 21193 c7 -3 16 -2 19 1 4 3 -2 6 -13 5 -11 0 -14 -3 -6 -6z"/>
<path d="M8811 21170 c-13 -11 -33 -20 -46 -20 -12 0 -28 -6 -34 -14 -19 -23
26 -32 50 -10 10 9 40 22 66 29 26 7 49 17 51 23 6 20 -61 13 -87 -8z"/>
<path d="M16090 21160 c11 -21 70 -29 70 -10 0 13 -34 30 -60 30 -18 0 -19 -3
-10 -20z"/>
<path d="M16230 21110 c0 -5 9 -10 21 -10 11 0 17 5 14 10 -3 6 -13 10 -21 10
-8 0 -14 -4 -14 -10z"/>
<path d="M8585 21075 c-16 -7 -49 -21 -73 -31 -46 -19 -71 -41 -31 -28 13 4
31 8 40 9 22 2 109 48 109 57 0 11 -10 9 -45 -7z"/>
<path d="M16300 21080 c0 -13 48 -36 56 -27 4 4 1 13 -6 22 -14 17 -50 20 -50
5z"/>
<path d="M16469 21000 c20 -18 71 -28 71 -15 0 8 -59 35 -77 35 -16 -1 -15 -3
6 -20z"/>
<path d="M8351 20982 c-37 -18 -52 -42 -27 -42 13 0 102 43 115 55 12 13 -58
3 -88 -13z"/>
<path d="M13080 20940 c-19 -5 -82 -12 -140 -16 -59 -3 -129 -15 -160 -25 -30
-11 -66 -19 -80 -19 -14 -1 -43 -8 -65 -16 -22 -8 -66 -19 -98 -24 -32 -5 -82
-18 -110 -29 -29 -11 -81 -31 -117 -45 -114 -43 -300 -144 -351 -190 -28 -25
-98 -80 -157 -123 -114 -83 -298 -260 -373 -358 -61 -79 -199 -288 -215 -325
-3 -8 -14 -33 -24 -55 -32 -70 -67 -159 -76 -190 -6 -18 -17 -31 -29 -33 -16
-2 -26 10 -47 60 -14 35 -30 74 -34 88 -3 14 -13 34 -20 45 -8 11 -14 26 -14
35 0 9 -9 33 -20 55 -11 22 -20 43 -20 48 0 5 -11 35 -24 66 -14 31 -37 88
-51 126 -15 39 -33 73 -39 78 -17 11 -245 -2 -381 -23 -66 -10 -167 -21 -225
-25 -58 -3 -130 -13 -162 -21 -31 -8 -107 -18 -170 -24 -62 -5 -136 -14 -164
-19 -29 -6 -105 -13 -170 -16 -132 -7 -384 -38 -484 -61 -36 -8 -132 -19 -215
-25 -82 -5 -169 -14 -193 -20 -24 -5 -108 -14 -187 -19 -80 -5 -177 -17 -215
-26 -39 -9 -77 -13 -85 -10 -21 8 -285 -12 -380 -29 -44 -7 -127 -17 -185 -20
-58 -4 -136 -13 -175 -20 -38 -7 -117 -16 -175 -20 -58 -4 -159 -15 -225 -26
-124 -19 -151 -33 -140 -70 13 -38 25 -138 25 -198 0 -35 9 -116 19 -180 11
-64 22 -161 26 -216 4 -55 13 -132 20 -171 7 -39 16 -120 20 -180 4 -60 13
-147 20 -194 8 -47 19 -146 25 -220 5 -74 14 -152 19 -173 5 -21 12 -82 16
-135 4 -53 15 -158 26 -232 10 -74 19 -187 19 -250 1 -63 7 -167 15 -230 8
-63 19 -176 25 -250 5 -74 17 -182 25 -240 9 -58 20 -159 24 -225 5 -66 16
-187 25 -270 31 -276 55 -519 61 -608 3 -49 10 -108 15 -132 5 -24 14 -108 19
-187 5 -79 16 -190 25 -248 8 -58 20 -170 26 -248 6 -79 14 -150 17 -158 13
-33 51 -27 165 29 62 30 153 74 202 97 128 59 307 144 541 255 55 26 132 62
170 80 39 18 115 54 170 80 55 26 132 63 172 81 40 19 77 34 83 34 7 0 24 6
38 14 15 8 65 31 112 52 47 20 117 51 155 69 64 30 121 56 260 120 28 13 84
38 125 55 41 18 113 50 160 72 82 39 114 53 218 99 91 40 147 73 185 106 20
18 43 33 51 33 12 0 69 23 172 71 22 10 45 19 50 19 5 0 27 9 49 20 22 11 45
20 52 20 8 0 24 6 36 14 23 16 121 56 347 146 30 12 60 25 65 30 6 4 24 11 42
14 17 4 37 14 44 22 6 8 17 14 24 14 7 0 32 16 54 35 23 19 90 57 149 86 59
28 166 80 237 114 72 35 200 97 285 138 85 41 163 84 174 95 18 21 18 22 -3
71 -11 27 -21 59 -21 71 0 29 28 36 64 16 26 -15 131 -72 194 -106 64 -33 107
-50 149 -59 26 -5 66 -16 88 -25 22 -8 50 -15 63 -16 13 0 35 -6 50 -14 15 -8
46 -17 67 -21 22 -4 67 -15 100 -25 97 -31 260 -53 413 -58 124 -3 150 -1 202
17 34 12 85 21 118 21 31 0 73 5 92 11 51 15 208 58 260 70 25 6 59 16 75 24
17 7 66 27 110 44 148 56 343 172 565 338 107 80 284 277 346 387 26 45 71
118 100 163 56 84 138 241 172 328 35 91 60 160 67 185 8 26 43 70 57 70 4 0
50 20 100 44 161 77 242 113 282 126 22 7 64 25 95 40 31 15 95 46 144 69 222
105 264 125 297 146 19 12 69 36 110 54 41 18 118 50 170 73 52 22 104 45 115
50 10 6 89 46 174 90 172 88 181 93 181 118 0 20 -515 796 -566 852 -18 21
-85 115 -149 210 -63 95 -128 192 -145 216 -16 23 -30 46 -31 50 0 4 -16 27
-34 52 -19 25 -48 69 -65 98 -38 63 -78 87 -129 78 -20 -4 -118 -11 -219 -16
-117 -6 -192 -15 -210 -23 -18 -10 -85 -16 -202 -21 -96 -4 -213 -13 -260 -20
-47 -8 -132 -17 -190 -21 -58 -4 -139 -13 -180 -21 -41 -8 -91 -14 -111 -14
-44 0 -192 70 -296 141 -110 75 -302 169 -377 185 -17 3 -58 14 -91 24 -138
42 -253 60 -373 60 -77 0 -136 5 -168 15 -54 16 -55 16 -104 5z m363 -165
c140 -16 314 -63 442 -118 96 -41 294 -140 344 -171 156 -99 220 -144 278
-199 74 -71 76 -84 18 -118 -33 -20 -35 -24 -35 -77 0 -44 6 -64 27 -94 34
-51 23 -62 -45 -42 -46 14 -60 25 -124 100 -40 47 -102 107 -137 135 -63 49
-66 50 -117 44 -47 -6 -57 -4 -125 34 -88 50 -109 72 -109 116 0 39 -23 51
-115 59 -68 6 -79 15 -125 107 -39 76 -51 85 -100 70 -34 -10 -48 -8 -114 15
-74 25 -76 25 -121 9 -41 -16 -46 -16 -69 -1 -34 21 -41 20 -81 -10 -29 -22
-53 -28 -152 -40 -65 -7 -148 -14 -185 -14 -59 0 -69 -3 -86 -25 -11 -14 -39
-32 -62 -40 -23 -8 -57 -28 -74 -43 -18 -15 -46 -34 -63 -41 -18 -7 -36 -25
-44 -43 -6 -16 -29 -43 -50 -60 -24 -20 -41 -43 -45 -62 -7 -39 -40 -79 -81
-100 -18 -9 -33 -24 -33 -34 -1 -45 -15 -47 -94 -8 -42 21 -83 47 -91 59 -11
16 -25 20 -72 21 -50 1 -58 4 -58 20 0 12 13 28 32 39 28 16 41 17 110 9 81
-10 113 -3 113 24 0 8 -11 20 -25 26 -34 15 -31 38 10 78 19 19 35 42 35 52 0
36 -32 32 -126 -15 -93 -47 -140 -59 -132 -35 7 19 124 96 187 123 32 13 106
50 167 82 142 76 148 79 262 107 86 22 163 35 392 65 106 14 336 12 473 -4z
m2091 -343 c28 -40 110 -163 181 -273 72 -110 147 -223 168 -251 41 -57 46
-83 20 -96 -37 -19 -262 -73 -289 -70 -34 4 -42 14 -254 363 -84 138 -168 273
-186 302 -37 56 -40 68 -22 79 16 10 167 22 257 20 l75 -1 50 -73z m-2333 -17
c42 -15 79 -41 79 -56 0 -12 -108 -84 -210 -139 l-94 -52 -58 17 c-161 49
-144 182 32 236 46 14 205 10 251 -6z m624 -164 c72 -32 84 -71 22 -71 -73 0
-214 56 -225 89 -6 19 149 5 203 -18z m-305 -53 c166 -68 170 -70 175 -92 2
-12 6 -32 9 -46 2 -14 11 -45 20 -70 14 -43 50 -194 51 -215 0 -5 -24 -13 -54
-18 -50 -7 -58 -5 -95 20 -22 16 -86 72 -142 125 -82 79 -108 98 -140 103 -80
13 -108 28 -123 68 -12 33 -12 42 4 84 10 26 29 58 41 70 22 22 29 23 91 17
44 -4 101 -20 163 -46z m-1549 -98 c15 -8 19 -21 19 -59 0 -46 -2 -49 -62
-103 -108 -95 -260 -218 -270 -218 -18 0 -19 29 -3 105 28 135 65 180 209 255
64 33 77 35 107 20z m1947 -39 c4 -29 -15 -43 -40 -30 -21 11 -23 30 -6 47 19
19 43 10 46 -17z m-3160 -58 c12 -10 50 -95 87 -193 37 -96 93 -240 125 -320
32 -80 61 -155 65 -167 3 -12 -4 -58 -16 -103 -18 -67 -21 -89 -12 -118 48
-170 100 -322 124 -369 31 -58 37 -104 17 -121 -14 -10 -556 -162 -581 -162
-23 0 -34 20 -61 110 -13 47 -84 285 -156 530 -72 245 -142 481 -155 525 -13
44 -36 121 -51 170 -15 50 -29 104 -32 122 -4 30 -2 32 34 42 22 5 93 15 159
21 66 6 185 19 265 30 80 10 150 18 156 19 7 0 21 -7 32 -16z m3513 -2 c18
-15 21 -22 13 -31 -9 -9 -17 -6 -33 11 -37 40 -22 54 20 20z m-394 -87 c7 -18
-17 -38 -31 -24 -11 11 -1 40 14 40 6 0 13 -7 17 -16z m-3913 -7 c10 -8 41
-88 78 -207 70 -228 93 -303 118 -385 10 -33 75 -241 144 -462 69 -222 126
-409 126 -417 0 -9 -8 -19 -17 -25 -35 -18 -782 -211 -796 -205 -20 7 -21 10
-56 157 -16 67 -41 169 -55 227 -14 58 -52 218 -85 355 -134 569 -181 763
-196 812 -21 70 -11 89 52 97 27 3 149 15 273 27 124 11 252 24 285 28 90 13
110 12 129 -2z m4706 -39 c23 -38 46 -107 54 -161 5 -36 4 -37 -12 -19 -9 11
-38 25 -65 32 -80 21 -114 83 -87 154 8 22 16 26 50 26 35 0 43 -4 60 -32z
m-3203 -40 c4 -7 8 -62 8 -123 1 -60 5 -125 9 -143 7 -28 3 -40 -30 -90 -57
-85 -95 -132 -105 -132 -5 0 -9 15 -9 34 0 48 -9 66 -36 77 -42 15 -27 83 56
250 65 132 87 158 107 127z m2994 -9 c9 -17 8 -25 -5 -37 -12 -13 -18 -13 -30
-2 -16 13 -21 42 -9 53 13 13 32 7 44 -14z m-293 -55 c139 -104 282 -234 282
-255 0 -47 -124 -192 -217 -253 -64 -42 -66 -41 -173 131 -28 45 -75 116 -105
158 -59 82 -66 108 -35 125 11 6 29 27 39 48 26 49 85 112 105 112 9 0 56 -30
104 -66z m-5075 44 c19 -15 18 -10 217 -833 55 -228 160 -658 172 -708 16 -63
6 -78 -68 -98 -158 -45 -294 -82 -444 -124 -91 -24 -222 -61 -292 -80 -70 -19
-134 -35 -143 -35 -23 0 -31 28 -66 225 -17 99 -53 304 -80 455 -27 151 -58
325 -69 385 -11 61 -33 184 -49 275 -16 91 -40 223 -52 293 -17 94 -20 133
-13 145 9 13 45 21 170 35 87 10 272 30 409 46 306 35 288 34 308 19z m7315
-6 c40 -40 453 -673 450 -689 -5 -25 -224 -135 -262 -131 -27 3 -48 33 -240
334 -116 181 -221 344 -233 361 -26 35 -29 58 -10 70 12 8 241 70 265 72 6 1
20 -7 30 -17z m-1525 -108 c31 -52 71 -164 62 -172 -7 -7 -26 20 -70 98 -64
114 -56 184 8 74z m1114 14 c11 -13 40 -54 65 -93 25 -38 65 -101 90 -140 37
-58 148 -232 311 -488 16 -25 25 -50 22 -60 -4 -9 -39 -29 -78 -46 -40 -16
-97 -41 -127 -55 -83 -39 -94 -36 -137 35 -21 34 -50 80 -64 103 -14 22 -59
95 -99 161 -40 66 -99 162 -131 213 -33 50 -59 95 -59 98 0 3 -27 47 -60 98
-38 59 -58 99 -54 110 3 8 25 20 48 26 61 15 158 41 186 50 43 14 66 11 87
-12z m-7915 -5 c9 -11 37 -145 72 -348 32 -181 67 -379 78 -440 10 -60 30
-171 43 -245 13 -74 35 -200 49 -280 14 -80 37 -210 51 -290 14 -80 27 -151
30 -158 9 -24 -15 -51 -53 -62 -20 -6 -122 -31 -227 -56 -104 -25 -344 -84
-532 -130 -188 -46 -348 -84 -355 -84 -40 1 -42 9 -73 305 -24 225 -174 1566
-181 1610 -8 60 9 75 92 85 38 4 200 22 359 40 160 17 355 40 435 50 189 23
194 23 212 3z m3926 -19 c30 -9 87 -19 126 -23 67 -6 71 -7 74 -32 2 -16 -6
-37 -21 -55 -50 -60 -187 -254 -214 -303 -50 -90 -72 -80 -179 81 -36 54 -69
100 -74 103 -6 4 -10 16 -10 29 0 31 188 216 220 216 12 0 47 -7 78 -16z
m3567 -78 c11 -12 67 -98 124 -191 57 -94 114 -186 126 -205 31 -48 247 -406
264 -437 12 -22 11 -27 -5 -43 -19 -18 -308 -156 -356 -170 -35 -11 -49 1 -90
73 -267 466 -401 698 -445 770 -29 48 -53 94 -53 101 0 24 23 34 175 76 83 23
161 46 175 50 33 11 61 3 85 -24z m-557 -250 c23 -52 42 -103 42 -114 0 -27
-17 -72 -28 -72 -17 0 -72 192 -72 253 0 47 15 30 58 -67z m-375 -38 c49 -63
108 -153 152 -235 l39 -72 -69 -101 c-67 -99 -171 -207 -257 -267 -30 -20 -43
-24 -56 -17 -9 6 -42 69 -73 140 -31 71 -73 159 -93 196 -20 37 -36 74 -36 82
0 9 17 26 38 40 73 46 210 166 233 203 52 87 72 92 122 31z m-2972 -94 c37
-55 88 -117 113 -138 69 -56 72 -65 38 -144 -16 -37 -51 -120 -77 -185 -27
-65 -56 -122 -65 -127 -19 -10 -62 9 -100 45 -14 14 -40 30 -58 36 -26 9 -32
16 -32 41 0 16 -17 59 -40 96 -76 129 -75 125 -25 236 64 144 132 248 158 244
13 -2 44 -38 88 -104z m597 23 c12 -73 11 -80 -10 -135 -20 -49 -27 -57 -51
-60 -29 -4 -110 29 -122 48 -4 7 16 51 45 98 97 160 118 168 138 49z m1624 66
c25 -23 22 -51 -7 -65 -21 -9 -28 -8 -45 7 -19 18 -27 55 -13 68 12 12 46 7
65 -10z m106 -170 c-2 -19 -14 -32 -41 -46 -52 -27 -68 -11 -37 37 17 28 28
36 51 36 27 0 30 -3 27 -27z m-2814 -139 c8 -20 -12 -56 -27 -51 -7 2 -13 18
-15 35 -3 26 0 32 16 32 11 0 23 -7 26 -16z m2906 -54 c30 -16 204 -394 198
-432 -5 -38 -83 -74 -412 -189 l-138 -48 -71 19 c-39 11 -74 23 -79 28 -8 8
-27 132 -28 178 0 12 18 49 40 82 28 42 44 79 51 121 6 33 16 67 22 75 7 8 68
35 137 59 69 24 152 60 185 80 67 41 69 41 95 27z m-1959 -66 c67 -30 85 -53
100 -125 6 -29 29 -76 53 -112 36 -53 81 -158 143 -330 7 -21 11 -43 8 -48
-11 -17 -49 -9 -114 21 -36 17 -111 42 -168 55 -117 28 -117 28 -230 102 -54
34 -83 60 -83 71 0 28 139 361 163 390 14 17 51 10 128 -24z m2786 -116 c17
-29 83 -235 83 -263 0 -60 -69 -143 -278 -333 -113 -102 -145 -114 -150 -57
-1 17 -16 89 -34 161 -17 73 -28 139 -25 147 3 9 32 35 64 58 105 77 253 210
269 242 22 43 34 57 50 57 7 0 16 -6 21 -12z m-3610 -24 c34 -21 40 -54 13
-76 -30 -24 -45 -23 -69 8 -20 26 -28 74 -14 87 8 9 40 0 70 -19z m244 -255
c35 -28 68 -58 72 -66 7 -12 -16 -205 -39 -319 -5 -28 -92 -60 -111 -41 -11
11 -140 348 -150 393 -3 12 1 26 8 30 16 11 129 52 145 53 6 1 40 -22 75 -50z
m-328 -44 c8 -8 29 -54 47 -102 18 -48 45 -122 60 -163 114 -309 221 -604 276
-765 36 -104 71 -199 79 -211 7 -11 33 -36 58 -55 25 -18 54 -50 65 -69 31
-56 86 -225 79 -243 -3 -9 -75 -49 -159 -90 -443 -215 -555 -267 -569 -267
-19 0 -34 16 -42 45 -3 11 -46 160 -97 330 -109 370 -179 609 -190 650 -8 32
-151 514 -202 683 -29 94 -30 104 -16 119 15 14 522 148 575 152 12 0 28 -6
36 -14z m2117 -105 c25 -25 25 -42 -1 -66 -15 -14 -42 -19 -109 -24 -66 -4
-93 -10 -108 -23 -44 -40 -95 -3 -72 52 18 44 44 55 125 53 46 -1 78 3 95 13
34 19 46 19 70 -5z m1007 -41 c7 -7 22 -54 35 -107 l22 -94 -27 -24 c-42 -36
-69 -38 -146 -14 -67 20 -76 21 -211 9 -77 -6 -143 -10 -145 -7 -3 3 19 30 47
61 48 52 63 60 163 97 61 22 133 51 160 65 56 27 85 31 102 14z m-3879 -12 c6
-7 31 -82 55 -167 25 -85 66 -225 92 -310 25 -85 57 -191 70 -235 26 -89 146
-494 175 -595 34 -117 101 -343 137 -459 19 -62 32 -119 30 -125 -5 -12 -71
-42 -337 -153 -58 -24 -125 -53 -150 -63 -197 -84 -362 -150 -375 -150 -8 0
-20 10 -25 23 -5 12 -42 157 -80 322 -62 262 -262 1103 -367 1537 -19 82 -33
155 -29 163 8 23 22 27 386 126 184 49 337 92 339 95 10 9 69 3 79 -9z m1432
-32 c56 -36 88 -49 180 -70 62 -14 130 -35 151 -45 20 -11 77 -31 125 -45 49
-14 92 -31 96 -38 4 -7 8 -94 8 -194 0 -221 4 -215 -121 -178 -287 86 -551
198 -584 249 -15 23 -15 36 5 173 27 196 26 193 52 193 11 0 51 -20 88 -45z
m1907 -71 c7 -18 -17 -38 -31 -24 -11 11 -1 40 14 40 6 0 13 -7 17 -16z m-78
-120 c17 -14 31 -31 31 -38 0 -15 -69 -81 -93 -89 -22 -8 -37 27 -37 87 0 70
43 88 99 40z m1285 0 c23 -9 20 -47 -9 -104 -14 -28 -27 -50 -29 -50 -3 0 -11
-3 -19 -6 -9 -3 -20 2 -26 14 -18 33 29 152 60 152 4 0 14 -3 23 -6z m-5454
-47 c5 -12 39 -152 75 -312 36 -159 70 -306 75 -325 5 -19 50 -213 100 -430
51 -217 105 -451 121 -520 16 -69 36 -155 44 -192 8 -37 26 -113 40 -169 14
-57 23 -110 20 -120 -3 -9 -22 -24 -43 -32 -36 -15 -249 -113 -400 -183 -41
-19 -75 -34 -77 -34 -2 0 -46 -19 -97 -43 -392 -182 -438 -201 -453 -186 -9 8
-26 73 -40 145 -14 71 -41 215 -61 319 -19 105 -55 294 -80 420 -24 127 -62
327 -84 445 -51 272 -73 387 -109 575 -76 398 -75 393 -62 409 15 18 59 32
381 115 129 34 318 83 420 110 195 51 212 52 230 8z m3225 -42 c60 -25 126
-57 146 -71 33 -22 44 -25 95 -20 51 5 70 2 139 -26 62 -26 84 -41 102 -68 43
-68 46 -70 122 -84 40 -8 78 -19 84 -25 16 -16 -3 -43 -39 -55 -35 -12 -659
-14 -726 -3 -78 13 -78 15 -78 211 0 95 3 176 7 179 12 13 39 6 148 -38z
m1441 -6 c60 -19 75 -20 116 -10 39 11 51 10 77 -3 16 -9 35 -16 40 -16 6 0
41 -20 78 -45 37 -25 73 -45 80 -45 8 0 38 22 66 49 80 75 140 100 151 63 11
-34 -23 -104 -79 -163 -30 -32 -55 -61 -55 -64 0 -4 9 -18 20 -32 11 -14 20
-33 20 -42 0 -21 -74 -156 -106 -194 -14 -16 -33 -46 -44 -66 -39 -77 -110
-140 -308 -272 -205 -138 -258 -166 -405 -218 -139 -49 -163 -38 -82 38 24 23
56 61 70 85 14 24 33 47 42 50 21 9 11 101 -16 136 -19 26 -29 27 -92 15 -33
-6 -41 -3 -76 29 -22 19 -44 50 -49 68 -7 25 -17 34 -44 41 -19 5 -43 16 -52
24 -20 17 -24 58 -8 68 6 3 15 26 21 51 9 33 19 49 40 59 31 16 44 45 34 75
-12 38 11 59 67 62 29 2 53 8 55 15 3 7 -14 32 -36 56 -23 24 -41 47 -41 51 0
11 92 106 115 119 20 11 195 33 286 36 26 0 78 -9 115 -20z m-2309 -318 c95
-41 319 -117 448 -150 44 -12 85 -27 91 -34 17 -18 36 -218 22 -234 -16 -19
-56 -16 -154 13 -132 38 -188 63 -322 143 -104 62 -162 110 -162 135 0 3 -11
29 -25 58 -31 64 -33 108 -5 108 10 0 59 -17 107 -39z m1543 -211 c20 -40 40
-133 40 -187 0 -74 -10 -84 -99 -100 -142 -25 -677 -6 -715 26 -17 15 -23 38
-35 151 -5 47 -6 92 -1 100 7 13 54 15 352 12 190 -1 359 2 378 7 46 12 71 9
80 -9z m-1277 -330 c64 -22 163 -50 219 -61 57 -12 111 -25 120 -30 18 -10 78
-120 78 -144 0 -24 -42 -18 -121 19 -41 19 -101 43 -135 54 -76 25 -108 42
-193 99 -100 68 -133 103 -98 103 8 0 66 -18 130 -40z m1537 -103 c0 -7 -5
-18 -12 -25 -18 -18 -38 -15 -38 6 0 10 3 22 7 25 11 12 43 7 43 -6z m-560
-32 c113 0 227 2 254 5 39 4 50 2 60 -13 9 -15 7 -22 -11 -36 -33 -27 -286
-47 -415 -32 -54 6 -128 11 -165 11 -74 0 -113 17 -113 49 0 29 9 31 99 23 47
-4 178 -7 291 -7z"/>
<path d="M16620 20945 c0 -3 10 -10 23 -15 12 -5 32 -17 45 -26 14 -10 22 -12
22 -5 0 6 -11 16 -24 21 -13 5 -27 14 -31 19 -6 11 -35 15 -35 6z"/>
<path d="M8264 20926 c-10 -8 -16 -17 -13 -20 3 -3 14 1 25 8 10 8 16 17 13
20 -3 3 -14 -1 -25 -8z"/>
<path d="M8150 20880 c-12 -8 -12 -10 2 -15 19 -7 38 1 38 16 0 12 -21 11 -40
-1z"/>
<path d="M16775 20870 c-7 -12 44 -50 68 -50 24 0 23 1 -25 34 -21 14 -40 21
-43 16z"/>
<path d="M8075 20830 c-3 -5 1 -10 9 -10 9 0 16 5 16 10 0 6 -4 10 -9 10 -6 0
-13 -4 -16 -10z"/>
<path d="M16870 20811 c0 -15 28 -33 46 -29 17 3 17 4 0 21 -18 18 -46 23 -46
8z"/>
<path d="M7951 20770 c-24 -17 -39 -30 -32 -30 19 0 91 40 91 50 0 16 -12 12
-59 -20z"/>
<path d="M16955 20764 c30 -23 116 -66 122 -61 7 8 -105 77 -125 77 -15 -1
-15 -2 3 -16z"/>
<path d="M7825 20709 c-10 -15 1 -23 20 -15 9 3 13 10 10 16 -8 13 -22 13 -30
-1z"/>
<path d="M17120 20670 c0 -5 9 -10 21 -10 11 0 17 5 14 10 -3 6 -13 10 -21 10
-8 0 -14 -4 -14 -10z"/>
<path d="M7684 20636 c-10 -8 -16 -17 -13 -20 3 -4 17 2 30 13 27 23 13 28
-17 7z"/>
<path d="M17280 20590 c0 -6 7 -10 15 -10 8 0 15 2 15 4 0 2 -7 6 -15 10 -8 3
-15 1 -15 -4z"/>
<path d="M7532 20554 c-29 -20 -28 -34 1 -34 22 0 57 27 57 43 0 13 -35 7 -58
-9z"/>
<path d="M17361 20533 c15 -23 137 -84 144 -73 6 10 -25 30 -47 30 -7 1 -29
14 -48 30 -39 34 -68 41 -49 13z"/>
<path d="M7415 20469 c-12 -19 5 -23 22 -6 16 16 16 17 1 17 -9 0 -20 -5 -23
-11z"/>
<path d="M7340 20425 c-10 -12 -10 -15 3 -15 8 0 17 7 21 15 3 8 2 15 -3 15
-5 0 -14 -7 -21 -15z"/>
<path d="M17560 20425 c0 -17 22 -29 41 -23 8 3 6 9 -5 21 -22 21 -36 22 -36
2z"/>
<path d="M17693 20333 c9 -9 19 -14 23 -11 10 10 -6 28 -24 28 -15 0 -15 -1 1
-17z"/>
<path d="M17760 20291 c0 -16 27 -31 44 -25 13 5 14 9 5 20 -13 15 -49 19 -49
5z"/>
<path d="M7043 20235 c-26 -22 -26 -24 -7 -25 11 0 31 11 44 25 32 34 2 35
-37 0z"/>
<path d="M17902 20209 c2 -7 10 -15 17 -17 8 -3 12 1 9 9 -2 7 -10 15 -17 17
-8 3 -12 -1 -9 -9z"/>
<path d="M6880 20135 c-7 -9 -10 -18 -7 -21 7 -8 47 14 47 26 0 15 -26 12 -40
-5z"/>
<path d="M6785 20050 c-8 -13 5 -13 25 0 13 8 13 10 -2 10 -9 0 -20 -4 -23
-10z"/>
<path d="M6700 19998 c-29 -32 -14 -37 18 -5 14 15 21 27 15 27 -7 0 -21 -10
-33 -22z"/>
<path d="M18455 19810 c3 -5 8 -10 11 -10 2 0 4 5 4 10 0 6 -5 10 -11 10 -5 0
-7 -4 -4 -10z"/>
<path d="M6310 19694 c0 -14 3 -14 15 -4 8 7 15 14 15 16 0 2 -7 4 -15 4 -8 0
-15 -7 -15 -16z"/>
<path d="M6150 19559 c0 -5 5 -7 10 -4 6 3 10 8 10 11 0 2 -4 4 -10 4 -5 0
-10 -5 -10 -11z"/>
<path d="M18790 19526 c0 -8 7 -17 16 -20 30 -11 37 -6 19 14 -21 23 -35 26
-35 6z"/>
<path d="M5775 19240 c-3 -5 -2 -10 4 -10 5 0 13 5 16 10 3 6 2 10 -4 10 -5 0
-13 -4 -16 -10z"/>
<path d="M20260 17964 c0 -12 12 -34 28 -49 23 -23 27 -25 30 -10 2 10 -10 31
-27 49 -28 28 -31 29 -31 10z"/>
<path d="M20496 17636 c6 -16 34 -30 34 -18 0 10 -22 32 -32 32 -4 0 -5 -6 -2
-14z"/>
<path d="M4226 17371 c-4 -7 -5 -15 -2 -18 9 -9 19 4 14 18 -4 11 -6 11 -12 0z"/>
<path d="M20750 17242 c0 -14 39 -46 47 -39 3 4 -2 16 -12 27 -19 21 -35 26
-35 12z"/>
<path d="M3935 16921 c-3 -5 -1 -12 5 -16 5 -3 10 1 10 9 0 18 -6 21 -15 7z"/>
<path d="M3892 16810 c0 -14 2 -19 5 -12 2 6 2 18 0 25 -3 6 -5 1 -5 -13z"/>
<path d="M21090 16662 c0 -11 7 -25 15 -32 12 -10 15 -9 15 8 0 11 -7 25 -15
32 -12 10 -15 9 -15 -8z"/>
<path d="M21140 16578 c0 -9 5 -20 10 -23 13 -8 13 5 0 25 -8 13 -10 13 -10
-2z"/>
<path d="M21176 16501 c-3 -5 1 -14 9 -21 12 -10 15 -10 15 3 0 19 -16 31 -24
18z"/>
<path d="M3668 16452 c-10 -2 -18 -10 -18 -17 0 -8 -11 -35 -25 -61 -14 -26
-25 -53 -25 -59 0 -7 -6 -15 -14 -18 -7 -3 -16 -23 -19 -45 -4 -22 -14 -45
-22 -52 -8 -7 -15 -22 -15 -34 0 -11 -11 -34 -25 -50 -23 -27 -35 -86 -17 -86
11 1 69 90 87 135 9 22 22 52 30 67 8 14 15 33 15 41 0 9 18 48 40 89 39 73
41 97 8 90z"/>
<path d="M21383 16064 c-8 -21 13 -42 28 -27 13 13 5 43 -11 43 -6 0 -13 -7
-17 -16z"/>
<path d="M21420 15951 c0 -11 29 -35 35 -29 10 9 -7 38 -21 38 -8 0 -14 -4
-14 -9z"/>
<path d="M20096 15821 c-5 -8 6 -40 49 -136 23 -54 54 -139 64 -180 22 -84 52
-192 65 -230 8 -22 24 -76 36 -120 27 -99 54 -195 75 -260 9 -27 22 -75 30
-105 7 -30 20 -73 29 -95 8 -22 15 -51 16 -65 0 -14 7 -53 16 -85 9 -35 19
-139 25 -249 5 -104 15 -223 23 -265 8 -42 24 -130 36 -196 11 -66 28 -159 37
-208 15 -77 15 -96 3 -165 -7 -43 -15 -165 -16 -277 -4 -317 -22 -733 -34
-820 -6 -44 -20 -109 -30 -145 -11 -36 -28 -96 -39 -135 -45 -161 -82 -275
-92 -281 -24 -15 -32 20 -36 158 -6 238 -20 365 -70 623 -8 44 -19 145 -24
225 -18 283 -28 332 -120 605 -41 121 -57 164 -74 202 -8 17 -15 39 -15 48 0
26 -61 222 -120 385 -7 19 -26 64 -43 100 -16 35 -45 101 -65 144 -19 44 -60
119 -90 166 -80 122 -95 152 -143 289 -18 50 -81 155 -216 357 -69 104 -211
240 -230 220 -3 -2 9 -58 26 -123 17 -65 33 -145 37 -178 3 -33 10 -73 16 -90
6 -16 16 -55 24 -85 7 -30 25 -95 40 -145 21 -69 29 -124 35 -235 4 -80 15
-179 24 -220 9 -41 20 -102 26 -135 5 -33 14 -73 20 -90 24 -71 61 -291 70
-420 11 -154 0 -361 -28 -495 -10 -50 -16 -148 -18 -290 -2 -159 -8 -247 -23
-340 -19 -116 -44 -298 -58 -430 -6 -57 -66 -244 -87 -268 -21 -26 -29 28 -34
243 -2 116 -11 244 -18 285 -23 123 -43 286 -55 440 -13 174 -55 352 -114 485
-8 17 -17 48 -21 70 -4 22 -17 76 -31 120 -22 77 -40 125 -99 280 -15 39 -30
81 -35 95 -13 41 -52 123 -70 150 -59 85 -91 141 -96 171 -14 77 -56 183 -100
251 -26 40 -72 111 -102 158 -30 47 -62 96 -71 110 -9 14 -30 51 -46 83 -31
60 -132 167 -159 167 -22 0 -27 -15 -15 -47 6 -15 17 -59 24 -98 38 -208 73
-375 105 -495 70 -265 75 -302 61 -420 -12 -98 -7 -147 23 -265 22 -85 28
-708 7 -775 -7 -25 -19 -88 -26 -140 -7 -52 -20 -140 -28 -195 -9 -55 -25
-170 -36 -255 -11 -85 -30 -182 -41 -215 -11 -33 -32 -100 -46 -148 -26 -85
-47 -114 -64 -88 -4 7 -10 90 -14 184 -5 138 -4 185 8 237 20 83 20 137 0 191
-10 28 -19 102 -24 199 -5 99 -14 171 -24 199 -9 24 -16 56 -16 71 0 15 -9 53
-20 85 -11 32 -20 67 -20 77 0 10 -9 51 -20 91 -23 87 -48 190 -64 273 -7 34
-37 113 -68 175 -31 63 -66 141 -78 174 -69 189 -94 230 -205 345 -50 52 -118
134 -149 181 -33 49 -88 113 -126 147 -37 34 -84 86 -105 117 -63 96 -95 55
-56 -73 11 -37 24 -94 30 -127 12 -73 32 -122 75 -184 62 -88 69 -109 77 -233
7 -112 9 -120 48 -185 l39 -69 11 -381 c6 -209 14 -388 17 -396 3 -9 -2 -60
-10 -115 -9 -55 -16 -143 -16 -195 0 -92 -2 -100 -40 -179 -29 -60 -40 -96
-40 -129 0 -87 -83 -298 -142 -361 l-31 -33 -8 23 c-5 13 -6 28 -3 33 3 5 7
67 9 137 2 70 8 150 13 177 19 90 14 212 -13 320 -16 62 -25 128 -25 176 0 41
-7 98 -15 126 -8 28 -20 71 -25 95 -5 24 -25 89 -44 146 -20 57 -36 116 -36
132 0 15 -29 86 -65 158 -36 71 -65 134 -65 138 0 5 -19 46 -42 92 -45 88 -38
80 -312 337 -150 141 -172 157 -186 134 -15 -23 4 -76 81 -233 22 -43 39 -88
39 -100 0 -36 44 -156 81 -221 l34 -60 6 -175 c5 -127 11 -187 23 -220 26 -69
33 -242 12 -312 -14 -49 -15 -78 -7 -195 8 -132 6 -164 -17 -278 -6 -28 -10
-109 -10 -180 1 -137 -22 -253 -62 -320 -24 -40 -60 -172 -60 -218 0 -50 -23
-41 330 -118 52 -12 133 -30 180 -40 47 -10 128 -28 180 -38 154 -33 288 -62
396 -87 56 -13 113 -24 127 -24 13 0 42 -6 63 -14 22 -7 62 -16 89 -20 28 -4
84 -16 125 -25 41 -10 120 -28 175 -40 55 -12 138 -31 185 -41 47 -10 128 -28
180 -39 52 -11 129 -28 170 -37 41 -9 104 -22 140 -29 139 -28 227 -47 275
-60 28 -8 81 -19 119 -25 38 -6 73 -13 78 -16 5 -3 52 -14 106 -24 91 -18 122
-24 240 -51 26 -6 81 -17 122 -25 41 -8 98 -21 125 -29 28 -8 75 -17 105 -21
30 -4 69 -12 86 -19 17 -7 55 -16 85 -20 30 -4 88 -15 129 -25 41 -10 99 -23
128 -29 28 -6 76 -16 105 -22 28 -6 81 -18 117 -26 36 -8 97 -21 135 -28 39
-7 83 -18 98 -24 16 -6 48 -11 72 -11 53 0 59 9 76 106 6 38 28 105 49 149 27
59 39 98 43 150 5 67 30 149 63 207 30 55 56 208 59 353 2 97 10 174 26 250
20 99 22 135 21 350 -3 374 -20 684 -44 810 -24 129 -25 143 -10 214 17 77 15
137 -7 211 -20 68 -47 176 -62 245 -4 22 -8 72 -9 110 0 39 -5 88 -11 110 -6
22 -16 65 -23 95 -12 48 -52 135 -76 165 -11 14 -40 120 -95 355 -13 55 -29
89 -110 235 -25 44 -47 85 -49 90 -20 46 -45 128 -50 165 -4 25 -29 86 -57
135 -27 50 -55 101 -61 115 -25 50 -60 96 -126 166 -52 54 -81 98 -127 190
-54 106 -70 129 -157 217 -90 91 -119 110 -132 88z"/>
<path d="M21597 15529 c4 -15 8 -17 14 -8 8 14 3 29 -11 29 -4 0 -6 -9 -3 -21z"/>
<path d="M12110 15279 c-112 -6 -276 -35 -400 -69 -184 -51 -265 -81 -420
-153 -239 -111 -337 -161 -393 -200 -33 -23 -67 -46 -75 -52 -9 -5 -57 -42
-106 -80 -50 -39 -126 -96 -168 -129 -114 -85 -455 -449 -533 -566 -94 -144
-131 -198 -185 -275 -27 -38 -49 -75 -50 -80 0 -6 -11 -27 -26 -48 -26 -39
-78 -156 -96 -217 -5 -19 -14 -39 -18 -45 -8 -10 -54 -134 -72 -195 -6 -19
-16 -47 -24 -62 -16 -32 -40 -167 -60 -343 -23 -204 -30 -248 -45 -282 -13
-32 -6 -105 32 -330 6 -34 9 -66 6 -71 -17 -27 24 -361 60 -492 86 -312 141
-462 195 -533 21 -28 38 -55 38 -60 0 -10 29 -73 146 -312 l83 -170 115 -105
c81 -73 140 -138 196 -215 43 -60 90 -117 102 -126 13 -9 79 -54 148 -101 69
-47 163 -122 210 -167 87 -83 90 -85 339 -203 57 -27 125 -54 266 -104 22 -8
54 -21 70 -28 44 -20 279 -83 357 -96 37 -5 79 -15 94 -20 68 -26 284 -45 514
-45 150 0 255 -5 290 -13 61 -14 117 -7 215 28 33 12 110 30 170 40 61 10 133
23 160 30 177 39 233 55 255 70 14 10 36 21 50 25 14 4 54 22 90 40 36 18 115
56 175 85 129 61 186 97 315 200 112 89 203 158 245 184 60 38 471 484 512
554 15 26 38 61 52 79 14 17 44 61 66 98 22 36 59 96 83 133 56 86 85 142 112
217 11 33 29 78 39 100 19 41 27 62 66 175 12 36 27 75 33 85 18 34 72 280 87
402 8 65 20 145 26 178 15 83 4 379 -21 543 -11 73 -22 192 -26 264 -6 135
-24 205 -85 328 -12 25 -26 76 -30 115 -9 91 -32 154 -128 350 -73 151 -128
241 -232 381 -24 32 -49 69 -55 81 -34 63 -184 227 -341 374 -240 224 -243
226 -368 309 -60 40 -129 86 -153 101 -23 16 -46 29 -51 29 -5 0 -19 8 -32 19
-27 21 -221 121 -235 121 -14 0 -129 47 -221 91 -44 22 -87 39 -95 40 -7 0
-38 8 -68 18 -41 14 -64 16 -94 9 -30 -7 -50 -5 -76 5 -19 8 -70 29 -113 46
l-78 32 -212 -2 c-139 -2 -224 2 -247 9 -38 13 -179 13 -380 1z m368 -190 c78
0 206 -6 285 -14 78 -8 186 -20 241 -26 84 -9 104 -14 135 -39 28 -22 63 -34
161 -55 139 -29 136 -28 270 -110 52 -32 154 -82 226 -110 199 -79 356 -174
472 -286 42 -41 135 -129 206 -195 166 -154 246 -261 356 -479 47 -93 107
-202 133 -241 38 -56 55 -97 83 -195 30 -106 41 -129 70 -156 19 -18 34 -41
34 -52 0 -11 18 -119 39 -238 25 -135 42 -268 46 -348 5 -83 12 -138 21 -152
8 -12 14 -37 14 -55 0 -73 -52 -481 -75 -591 -14 -64 -25 -138 -25 -163 0 -25
-9 -69 -21 -97 -24 -60 -29 -74 -104 -265 -30 -79 -55 -145 -55 -147 0 -3 -83
-140 -221 -364 -64 -103 -157 -214 -339 -404 -52 -54 -99 -105 -103 -113 -7
-12 -71 -61 -300 -227 -175 -126 -323 -208 -405 -223 -20 -4 -68 -21 -107 -39
-146 -68 -173 -77 -280 -95 -60 -11 -168 -36 -240 -56 -99 -27 -140 -34 -173
-29 -28 4 -78 -1 -146 -16 l-104 -22 -254 27 c-612 64 -538 52 -740 129 -64
25 -161 57 -215 72 -94 27 -185 75 -413 220 -19 13 -62 40 -95 60 -67 42 -78
52 -323 279 -95 89 -196 193 -225 231 -264 360 -269 368 -486 826 -32 69 -38
100 -142 674 -10 61 -23 130 -28 155 -6 28 -5 68 1 105 5 33 8 98 5 145 -5 80
0 118 32 265 6 28 18 113 26 189 12 109 23 158 50 227 18 48 38 113 44 143 6
31 21 84 35 118 13 35 27 73 31 86 4 13 22 30 40 39 36 17 49 40 106 195 17
46 36 90 43 98 7 8 37 55 67 105 37 61 99 138 199 245 80 85 169 183 198 216
72 84 270 222 402 282 92 42 107 52 124 86 16 34 32 44 155 102 220 105 282
131 351 144 36 6 110 25 165 41 156 46 500 109 560 102 28 -3 114 -5 193 -4z"/>
<path d="M11066 13884 c-9 -8 -16 -17 -16 -20 0 -9 -138 -655 -173 -811 -15
-64 -20 -108 -15 -118 8 -13 44 -15 257 -15 182 0 251 3 263 13 11 8 25 59 42
152 32 170 39 198 53 202 19 7 24 -29 30 -185 5 -113 10 -157 20 -168 22 -21
475 -21 493 1 10 12 9 88 -4 367 -25 535 -27 568 -43 584 -12 12 -88 14 -453
14 -385 0 -440 -2 -454 -16z"/>
<path d="M13193 13885 c-13 -9 -118 -206 -253 -476 -184 -367 -228 -464 -219
-475 9 -11 60 -14 268 -14 141 0 263 4 271 9 7 6 50 83 95 172 44 89 86 164
93 167 20 6 14 -54 -20 -188 -17 -69 -29 -133 -25 -143 6 -15 29 -17 249 -17
134 0 249 4 256 8 11 8 49 169 127 547 14 66 29 134 34 150 5 17 19 78 31 137
19 88 21 110 10 123 -19 23 -884 23 -917 0z"/>
<path d="M11049 12672 c-191 -2 -239 -5 -249 -17 -6 -8 -24 -74 -39 -147 -16
-73 -56 -263 -91 -423 -34 -159 -66 -308 -71 -330 -53 -248 -82 -381 -150
-695 -54 -251 -53 -246 -38 -256 20 -12 511 -16 542 -5 15 6 29 21 32 33 2 13
25 131 50 263 25 132 50 258 55 280 5 22 51 252 100 510 50 259 104 534 121
611 27 131 29 174 9 174 -5 0 -14 1 -22 3 -7 1 -119 1 -249 -1z"/>
<path d="M13395 12670 c-73 -6 -72 -3 -119 -205 -20 -82 -72 -298 -116 -480
-45 -181 -101 -413 -126 -515 -25 -102 -70 -284 -99 -406 -30 -121 -55 -230
-55 -241 0 -13 8 -23 23 -27 38 -10 517 -7 537 4 22 12 30 37 65 205 24 116
81 380 135 630 52 241 90 415 155 725 20 91 43 191 52 223 24 88 25 87 -203
90 -104 1 -216 0 -249 -3z"/>
<path d="M11533 12653 c-4 -9 -1 -129 6 -267 6 -138 16 -350 22 -471 51 -1166
46 -1088 70 -1108 20 -16 47 -18 288 -16 146 0 277 3 289 6 19 5 39 36 97 157
40 83 135 277 210 431 76 154 188 384 250 510 62 127 169 346 239 488 70 142
125 265 122 273 -4 12 -50 14 -274 14 -243 0 -270 -2 -285 -17 -8 -10 -111
-211 -229 -447 -117 -236 -219 -431 -227 -434 -7 -3 -16 0 -20 7 -4 6 -16 199
-25 429 -10 229 -22 427 -27 440 -9 22 -9 22 -254 22 -220 0 -246 -2 -252 -17z"/>
<path d="M21786 15003 c4 -10 9 -35 12 -55 2 -21 8 -38 13 -38 14 0 10 48 -6
80 -17 32 -32 42 -19 13z"/>
<path d="M21860 14721 c0 -6 5 -13 10 -16 6 -3 10 1 10 9 0 9 -4 16 -10 16 -5
0 -10 -4 -10 -9z"/>
<path d="M3017 14703 c-10 -10 -8 -93 2 -93 11 0 21 35 21 73 0 26 -9 34 -23
20z"/>
<path d="M3883 14438 c-10 -13 -45 -84 -102 -211 -17 -38 -33 -85 -36 -105 -4
-20 -13 -68 -20 -107 -7 -38 -25 -151 -40 -250 -14 -99 -31 -193 -37 -210 -5
-16 -15 -50 -20 -75 -5 -25 -16 -73 -24 -107 -15 -68 -17 -231 -4 -363 6 -64
4 -105 -7 -165 -13 -67 -14 -140 -9 -440 6 -353 9 -393 41 -565 9 -47 21 -132
26 -190 5 -58 18 -136 29 -175 29 -108 51 -203 66 -283 7 -40 19 -82 25 -95 7
-12 14 -67 17 -122 4 -94 7 -104 44 -167 21 -37 43 -87 48 -110 15 -73 47
-177 57 -190 10 -12 67 -118 118 -218 23 -44 65 -175 65 -201 0 -14 80 -174
130 -259 17 -30 60 -84 95 -120 42 -43 85 -104 129 -182 36 -65 66 -123 66
-128 0 -18 170 -187 201 -200 16 -7 32 -11 34 -8 5 5 -24 127 -45 188 -56 163
-98 277 -121 328 -10 23 -19 51 -19 61 0 10 -8 40 -19 67 -40 103 -84 284
-102 414 -5 36 -15 85 -23 110 -63 193 -82 290 -91 460 -7 141 -21 263 -39
338 -9 37 -16 155 -21 342 -3 157 -10 320 -14 362 -5 44 -4 96 1 120 5 24 11
144 14 268 4 175 9 238 23 285 10 33 26 86 35 117 9 32 21 110 27 174 9 102
35 224 68 319 6 17 18 56 27 87 17 60 38 88 53 72 5 -5 14 -121 20 -259 23
-497 31 -611 50 -710 26 -133 58 -335 66 -410 3 -33 12 -85 20 -115 7 -30 18
-83 23 -117 7 -38 31 -105 65 -175 56 -114 90 -226 101 -330 6 -55 16 -81 122
-306 24 -51 44 -99 44 -108 0 -8 9 -32 20 -54 11 -22 20 -45 20 -52 0 -7 8
-29 18 -48 11 -19 22 -48 26 -65 16 -65 61 -164 111 -240 273 -418 325 -492
388 -547 36 -32 73 -58 81 -58 22 0 21 43 -3 105 -10 28 -22 77 -25 110 -4 33
-14 85 -21 115 -7 30 -16 82 -20 115 -4 33 -13 83 -20 110 -8 28 -18 86 -24
130 -13 93 -36 201 -57 265 -9 25 -20 62 -25 83 -5 21 -17 50 -26 63 -13 20
-18 67 -24 232 -9 213 -18 307 -46 450 -14 78 -14 89 2 160 10 43 22 86 28 97
21 40 24 97 15 302 -9 218 -3 275 36 378 11 29 15 80 16 187 0 81 5 159 11
175 28 72 59 197 64 259 7 79 32 200 45 223 11 19 13 13 16 -64 6 -152 24
-335 39 -385 9 -32 20 -124 24 -220 5 -91 16 -196 24 -235 9 -38 21 -131 27
-205 12 -150 25 -230 45 -275 28 -63 65 -162 65 -174 0 -7 9 -30 19 -50 25
-46 49 -119 66 -201 15 -67 37 -139 78 -250 29 -79 36 -93 103 -196 29 -44 66
-118 84 -165 58 -158 112 -258 267 -492 21 -32 47 -74 58 -92 40 -68 95 -125
120 -125 29 0 29 1 14 72 -11 50 -19 75 -70 200 -15 36 -24 89 -30 177 -5 69
-20 182 -34 250 -14 68 -25 158 -25 200 -1 137 -19 329 -35 367 -19 47 -19 80
2 181 16 78 16 84 -3 145 -21 69 -24 199 -6 275 6 25 6 88 2 158 -5 69 -5 129
1 148 5 18 16 82 25 142 8 61 19 126 25 146 5 20 14 93 19 162 6 75 21 165 36
219 14 51 35 126 45 167 31 115 57 156 73 114 9 -21 22 -269 36 -658 9 -237
15 -316 30 -375 19 -72 45 -181 90 -375 11 -49 27 -115 35 -146 8 -30 15 -64
15 -76 0 -23 35 -93 91 -178 41 -64 79 -161 79 -203 0 -26 34 -90 116 -217 28
-44 55 -92 59 -105 4 -14 89 -106 189 -205 100 -99 195 -197 210 -217 58 -78
69 -35 21 79 -20 49 -41 104 -46 124 -4 19 -15 49 -24 65 -8 16 -15 38 -15 49
0 11 -8 52 -19 90 -29 107 -52 205 -63 260 -5 28 -15 70 -23 95 -33 110 -65
270 -65 331 0 36 -9 101 -21 145 -24 90 -28 200 -9 287 7 35 9 82 5 116 -7 63
25 284 50 344 7 18 18 68 24 111 13 93 36 176 61 220 10 17 28 78 40 136 25
118 55 197 82 211 35 19 35 -20 -3 -251 -14 -87 10 -408 34 -454 5 -11 14 -75
18 -142 5 -67 14 -135 20 -150 6 -16 17 -60 24 -99 17 -90 55 -237 65 -250 4
-5 13 -28 20 -49 7 -22 28 -65 46 -97 19 -31 39 -67 45 -80 5 -13 18 -37 27
-54 10 -16 42 -74 72 -128 64 -115 66 -118 240 -277 74 -68 146 -135 160 -148
13 -13 32 -28 42 -33 46 -25 30 65 -37 206 -44 92 -85 214 -85 254 0 12 -7 35
-15 52 -32 62 -67 205 -72 294 -3 53 -13 117 -26 155 -17 52 -22 88 -21 180 0
63 5 144 10 180 5 36 6 166 3 290 l-6 225 38 87 c42 98 59 200 59 359 0 55 6
116 15 145 22 75 3 114 -57 114 -13 0 -68 11 -123 24 -55 13 -145 33 -200 45
-184 40 -289 63 -370 81 -44 10 -127 28 -185 40 -58 12 -139 30 -180 40 -41
11 -95 22 -120 26 -25 4 -61 12 -80 19 -20 7 -60 16 -90 19 -30 4 -75 13 -100
21 -25 7 -65 17 -90 20 -25 4 -79 15 -120 25 -41 10 -120 28 -175 40 -55 12
-136 30 -180 41 -44 10 -136 30 -205 44 -69 14 -147 32 -175 40 -27 7 -70 16
-95 20 -25 4 -79 15 -120 25 -41 10 -120 27 -175 39 -55 12 -127 29 -159 37
-33 8 -94 22 -135 30 -42 8 -114 23 -161 33 -47 11 -130 29 -185 41 -55 12
-149 33 -210 47 -60 13 -135 28 -165 34 -30 6 -89 19 -130 29 -41 10 -120 28
-175 40 -55 12 -120 26 -145 32 -76 19 -125 21 -137 6z"/>
<path d="M2802 13537 c-14 -63 -15 -77 -2 -97 9 -13 11 -13 20 0 11 18 14 150
2 150 -4 0 -13 -24 -20 -53z"/>
<path d="M2777 13363 c-4 -3 -7 -33 -7 -66 0 -33 3 -57 7 -53 8 7 32 92 33
114 0 13 -22 17 -33 5z"/>
<path d="M2746 12935 c-8 -21 -8 -83 0 -112 12 -43 24 -23 24 40 0 66 -12 102
-24 72z"/>
<path d="M2960 10421 c0 -6 5 -13 10 -16 6 -3 10 1 10 9 0 9 -4 16 -10 16 -5
0 -10 -4 -10 -9z"/>
<path d="M3020 10148 c0 -9 7 -22 17 -29 15 -13 15 -12 3 11 -17 34 -20 36
-20 18z"/>
<path d="M3056 10031 c-4 -5 -2 -12 3 -15 5 -4 12 -2 15 3 4 5 2 12 -3 15 -5
4 -12 2 -15 -3z"/>
<path d="M3135 9710 c-10 -16 4 -50 21 -50 8 0 14 8 14 19 0 23 -25 47 -35 31z"/>
<path d="M19970 8843 c-131 -45 -217 -193 -208 -357 5 -99 48 -185 136 -274
77 -77 139 -116 232 -143 126 -37 214 -16 301 72 100 101 132 234 88 365 -23
69 -59 136 -79 149 -22 14 -58 -5 -69 -35 -11 -34 -8 -49 25 -100 12 -19 28
-60 34 -91 11 -47 10 -64 -4 -110 -20 -68 -39 -90 -105 -124 -43 -23 -60 -27
-101 -22 -27 3 -67 15 -89 27 -33 16 -41 26 -41 48 0 15 4 32 9 38 5 5 44 88
86 184 42 96 87 198 101 225 34 71 32 81 -28 111 -106 54 -203 66 -288 37z
m190 -118 c11 -10 20 -26 20 -35 0 -9 -25 -72 -56 -141 -31 -68 -65 -148 -76
-177 -27 -73 -57 -87 -99 -47 -133 128 -121 335 24 409 43 22 159 17 187 -9z"/>
<path d="M3549 8563 c7 -27 31 -45 31 -23 0 17 -19 50 -29 50 -5 0 -6 -12 -2
-27z"/>
<path d="M3640 8370 c0 -11 7 -20 15 -20 17 0 18 2 9 24 -9 23 -24 20 -24 -4z"/>
<path d="M19566 8179 c-14 -17 -26 -39 -26 -48 0 -10 42 -58 93 -107 292 -281
317 -314 325 -439 5 -89 -10 -145 -52 -190 -38 -40 -76 -46 -129 -20 -18 8
-120 98 -227 200 -212 201 -230 212 -263 156 -9 -16 -17 -36 -17 -44 0 -13
240 -249 375 -367 101 -89 169 -108 250 -71 97 44 155 174 134 299 -14 79 -4
96 42 69 17 -9 37 -17 44 -17 17 0 55 47 55 69 0 9 -52 66 -116 126 -360 340
-440 415 -451 415 -6 0 -23 -14 -37 -31z"/>
<path d="M3770 8090 c0 -11 4 -20 9 -20 5 0 7 9 4 20 -3 11 -7 20 -9 20 -2 0
-4 -9 -4 -20z"/>
<path d="M3802 8027 c3 -24 21 -27 26 -4 2 8 -4 17 -13 21 -13 4 -16 1 -13
-17z"/>
<path d="M5785 7806 c-55 -24 -197 -84 -315 -135 -218 -94 -356 -152 -465
-197 -125 -52 -133 -63 -87 -122 16 -20 73 -102 126 -181 152 -227 195 -275
284 -321 59 -31 152 -40 230 -24 139 29 212 113 212 245 0 55 11 62 65 42 82
-30 101 -33 140 -27 50 8 120 44 162 82 74 69 94 174 51 275 -25 60 -198 324
-244 374 -17 18 -38 33 -45 32 -8 0 -59 -20 -114 -43z m126 -124 c22 -24 142
-209 163 -251 33 -63 33 -93 0 -149 -28 -48 -103 -92 -158 -92 -87 0 -181 70
-263 196 -21 32 -50 75 -65 95 -40 51 -37 81 10 104 202 99 287 125 313 97z
m-458 -194 c19 -14 58 -70 141 -200 92 -144 98 -212 26 -285 -94 -94 -232 -81
-341 34 -42 44 -67 79 -166 228 -36 54 -41 86 -18 105 22 18 297 129 321 130
11 0 28 -6 37 -12z"/>
<path d="M3930 7780 c0 -5 5 -10 11 -10 5 0 7 5 4 10 -3 6 -8 10 -11 10 -2 0
-4 -4 -4 -10z"/>
<path d="M4100 7500 c0 -5 5 -10 11 -10 5 0 7 5 4 10 -3 6 -8 10 -11 10 -2 0
-4 -4 -4 -10z"/>
<path d="M19080 7431 c-16 -30 -12 -49 15 -85 38 -50 34 -66 -20 -66 -111 0
-204 -67 -245 -178 -33 -87 -35 -129 -11 -218 40 -146 133 -265 270 -349 57
-34 74 -39 142 -43 65 -4 85 -1 123 18 79 38 146 139 146 221 0 90 30 78 150
-61 56 -66 110 -120 120 -120 25 0 60 42 60 72 0 19 -23 53 -77 116 -43 49
-112 129 -155 178 -449 523 -459 534 -483 534 -14 0 -29 -8 -35 -19z m116
-252 c65 -31 160 -139 205 -233 49 -101 52 -157 12 -237 -24 -45 -37 -59 -83
-82 -43 -22 -63 -27 -90 -22 -112 21 -245 139 -295 263 -40 96 -41 192 -3 250
16 23 45 50 65 61 51 27 134 27 189 0z"/>
<path d="M18367 7020 c-14 -11 -29 -30 -32 -41 -9 -26 40 -109 64 -109 26 0
80 57 74 79 -5 22 -61 91 -72 91 -5 0 -20 -9 -34 -20z"/>
<path d="M4464 6904 c3 -9 6 -18 6 -20 0 -2 7 -4 15 -4 18 0 19 12 3 28 -17
17 -31 15 -24 -4z"/>
<path d="M6046 6854 c-170 -38 -326 -157 -371 -284 -18 -52 -19 -142 -1 -193
34 -95 133 -187 228 -213 62 -17 191 -20 231 -5 33 13 34 27 3 66 -23 29 -26
30 -112 30 -76 1 -96 5 -139 27 -61 31 -78 50 -105 110 -23 53 -21 76 16 149
21 43 84 109 104 109 23 0 43 -18 106 -93 38 -45 100 -118 139 -162 39 -44 83
-97 98 -117 23 -31 34 -38 62 -38 27 0 44 11 97 63 86 83 112 139 112 237 0
64 -4 83 -29 128 -84 154 -256 227 -439 186z m215 -106 c48 -16 112 -63 133
-99 27 -45 32 -128 11 -173 -28 -58 -68 -96 -103 -96 -27 0 -44 15 -134 121
-148 173 -162 193 -150 215 21 37 170 57 243 32z"/>
<path d="M18537 6752 c-34 -36 -34 -65 1 -111 16 -20 51 -67 77 -106 85 -122
227 -328 274 -397 50 -75 73 -84 108 -45 43 47 49 34 -186 372 -35 50 -83 122
-108 160 -59 91 -111 155 -127 155 -7 0 -24 -13 -39 -28z"/>
<path d="M4620 6695 c0 -16 27 -32 37 -21 7 7 -16 36 -28 36 -5 0 -9 -7 -9
-15z"/>
<path d="M4714 6568 c-4 -6 1 -17 12 -25 20 -15 30 -4 20 22 -6 18 -22 19 -32
3z"/>
<path d="M18195 6391 c-43 -20 -114 -90 -139 -140 -9 -16 -22 -65 -28 -107
-14 -87 -28 -100 -64 -60 -29 30 -41 32 -72 10 -45 -31 -38 -47 123 -294 34
-52 100 -155 146 -228 114 -180 110 -176 143 -168 15 4 35 21 46 38 17 29 18
35 5 53 -22 31 -198 311 -212 337 -56 108 -57 111 -56 203 1 108 9 131 69 195
56 60 92 71 137 40 30 -20 149 -194 321 -467 31 -51 52 -54 90 -14 21 22 27
36 23 53 -4 13 -53 94 -109 181 -57 86 -116 179 -132 205 -101 162 -187 211
-291 163z"/>
<path d="M5030 6184 c0 -13 21 -44 30 -44 17 0 11 25 -10 38 -11 7 -20 10 -20
6z"/>
<path d="M7235 6110 c-37 -27 -77 -50 -87 -50 -11 0 -34 10 -50 22 -24 17 -36
19 -57 12 -32 -11 -40 -48 -16 -74 30 -34 15 -61 -70 -122 -145 -104 -167
-121 -275 -204 -135 -105 -150 -135 -110 -213 25 -50 87 -101 121 -101 28 0
59 27 59 53 0 8 -13 25 -30 37 -37 26 -40 67 -7 97 21 20 357 273 407 306 35
24 54 21 93 -13 47 -41 84 -39 100 3 5 13 -2 28 -24 49 -45 45 -36 64 59 132
88 63 102 89 56 106 -57 22 -98 13 -169 -40z"/>
<path d="M5100 6100 c0 -5 7 -10 16 -10 8 0 12 5 9 10 -3 6 -10 10 -16 10 -5
0 -9 -4 -9 -10z"/>
<path d="M17053 5834 c-18 -14 -33 -31 -33 -38 0 -23 475 -960 492 -970 13 -8
24 -6 44 10 48 36 47 50 -17 175 -147 287 -161 326 -162 434 -2 105 14 143 86
213 33 33 55 45 86 49 37 5 44 3 73 -30 18 -20 89 -146 156 -281 111 -221 126
-246 148 -246 25 0 74 40 74 60 0 10 -94 204 -144 295 -8 17 -36 72 -61 123
-77 159 -122 202 -214 202 -61 0 -122 -31 -172 -88 -36 -41 -79 -127 -79 -158
0 -28 -27 -51 -46 -38 -7 5 -47 78 -89 162 -54 107 -81 152 -93 152 -9 0 -32
-12 -49 -26z"/>
<path d="M7378 5660 c-73 -22 -182 -87 -240 -144 -91 -88 -131 -168 -136 -272
-4 -71 -1 -86 21 -130 56 -109 196 -194 320 -194 58 0 187 36 204 57 17 21 -3
59 -38 73 -23 10 -37 9 -75 -4 -93 -31 -192 -16 -261 40 -51 42 -72 112 -54
180 13 50 76 134 99 134 10 0 58 -30 107 -67 289 -216 346 -255 369 -249 22 5
86 87 121 155 9 18 19 66 22 107 5 65 3 79 -21 128 -34 69 -116 144 -190 174
-43 17 -75 22 -139 21 -45 0 -94 -4 -109 -9z m274 -126 c52 -35 88 -102 88
-159 -1 -48 -21 -109 -46 -136 -34 -38 -66 -25 -217 86 -181 135 -177 131
-177 155 0 21 32 46 94 72 30 13 64 16 128 14 79 -2 92 -5 130 -32z"/>
<path d="M5690 5461 c0 -9 24 -21 42 -21 6 0 6 6 -2 15 -14 16 -40 20 -40 6z"/>
<path d="M5820 5341 c0 -6 5 -13 10 -16 6 -3 10 1 10 9 0 9 -4 16 -10 16 -5 0
-10 -4 -10 -9z"/>
<path d="M16865 5331 c-95 -26 -205 -108 -248 -186 -14 -25 -33 -81 -42 -124
-14 -72 -15 -87 0 -168 34 -195 124 -330 250 -374 44 -15 71 -19 104 -14 112
17 215 95 268 203 23 46 27 68 27 145 1 99 -4 107 -60 93 -33 -9 -48 -42 -45
-103 5 -118 -86 -233 -184 -233 -105 0 -190 101 -236 278 -35 138 -20 234 49
306 43 45 87 66 137 66 42 0 94 -20 114 -43 7 -10 24 -17 36 -17 29 0 75 37
75 60 0 22 -52 74 -95 94 -39 19 -112 27 -150 17z"/>
<path d="M8135 5173 c-58 -17 -166 -85 -213 -134 -105 -107 -180 -263 -167
-349 25 -167 208 -280 392 -241 62 14 159 65 177 94 9 15 6 23 -17 43 -36 31
-67 30 -113 -1 -80 -55 -194 -59 -259 -9 -48 36 -56 54 -57 123 -1 78 44 162
137 257 94 95 158 128 250 129 63 0 75 -3 118 -34 62 -42 81 -85 72 -157 -6
-49 -5 -53 25 -78 41 -34 56 -33 80 7 23 37 27 114 9 168 -49 146 -261 235
-434 182z"/>
<path d="M8958 4989 c-51 -67 -125 -163 -163 -213 -39 -50 -127 -164 -195
-254 -69 -90 -144 -188 -167 -218 -24 -31 -43 -62 -43 -70 0 -7 19 -23 41 -35
l41 -21 28 27 c16 15 61 70 102 123 208 271 260 318 378 339 96 18 206 -13
229 -64 27 -58 5 -100 -164 -319 -92 -119 -137 -177 -169 -217 -33 -43 -30
-61 19 -84 46 -22 55 -16 123 73 29 38 84 110 122 159 124 160 146 189 172
235 70 120 33 223 -101 283 -38 17 -64 20 -153 19 -85 -1 -108 1 -108 12 0 18
34 67 130 187 44 55 80 107 80 115 0 17 -51 44 -84 44 -20 0 -43 -24 -118
-121z"/>
<path d="M18815 4989 c-4 -6 -5 -13 -2 -16 7 -7 27 6 27 18 0 12 -17 12 -25
-2z"/>
<path d="M6242 4968 c3 -7 13 -15 24 -17 16 -3 17 -1 5 13 -16 19 -34 21 -29
4z"/>
<path d="M18751 4936 c-9 -10 -9 -16 -1 -21 12 -7 40 11 40 26 0 14 -26 10
-39 -5z"/>
<path d="M6320 4900 c11 -11 23 -20 27 -20 3 0 -2 9 -12 20 -10 11 -22 20 -27
20 -4 0 1 -9 12 -20z"/>
<path d="M16060 4885 c-166 -41 -279 -172 -302 -351 -16 -128 12 -257 77 -359
39 -61 66 -86 125 -116 65 -34 183 -33 261 3 68 31 150 112 184 182 29 61 56
161 48 181 -7 19 -46 19 -82 0 -31 -16 -41 -33 -41 -71 0 -34 -42 -112 -82
-153 -92 -94 -195 -89 -286 14 -45 51 -61 97 -41 121 12 14 95 56 269 135 178
80 235 113 238 137 2 12 -11 54 -29 93 -43 92 -116 160 -198 183 -67 19 -68
19 -141 1z m127 -104 c49 -23 103 -91 103 -132 0 -19 -8 -34 -23 -44 -41 -27
-334 -155 -355 -155 -34 0 -45 25 -40 93 15 180 175 301 315 238z"/>
<path d="M15305 4808 c-35 -41 -36 -46 -31 -93 21 -165 23 -150 -22 -179 -49
-31 -56 -40 -48 -72 6 -21 12 -24 55 -24 47 0 50 -2 60 -32 6 -18 15 -67 20
-108 31 -232 73 -443 92 -466 19 -23 64 -44 94 -44 30 0 136 46 147 63 13 20
9 55 -7 71 -12 12 -22 13 -41 6 -77 -30 -108 2 -124 124 -6 50 -13 93 -15 96
-2 4 -11 56 -20 116 -8 60 -20 130 -26 156 -15 64 -5 86 46 108 59 25 80 64
51 93 -12 12 -24 12 -60 4 -62 -14 -71 -3 -85 96 -22 150 -26 154 -86 85z"/>
<path d="M18585 4811 c-21 -4 -31 -13 -33 -29 -4 -29 10 -28 45 2 33 28 30 34
-12 27z"/>
<path d="M6450 4801 c0 -5 7 -12 16 -15 24 -9 28 -7 14 9 -14 17 -30 20 -30 6z"/>
<path d="M6610 4669 c14 -11 34 -28 45 -38 33 -30 65 -44 65 -28 0 17 -94 87
-117 87 -15 -1 -14 -4 7 -21z"/>
<path d="M18424 4676 c-10 -8 -15 -18 -11 -22 4 -4 17 2 30 14 24 25 12 30
-19 8z"/>
<path d="M10605 4530 c-33 -47 -29 -86 10 -96 46 -11 74 4 98 52 l22 46 -24
19 c-39 32 -74 25 -106 -21z"/>
<path d="M18280 4559 c0 -5 5 -7 10 -4 6 3 10 8 10 11 0 2 -4 4 -10 4 -5 0
-10 -5 -10 -11z"/>
<path d="M6774 4549 c-8 -13 3 -24 34 -34 28 -8 31 20 3 35 -25 13 -28 13 -37
-1z"/>
<path d="M9653 4513 c-11 -10 -43 -56 -70 -103 -28 -47 -81 -134 -118 -195
-37 -60 -79 -130 -94 -154 -14 -24 -47 -77 -73 -117 -27 -39 -48 -79 -48 -88
0 -17 48 -46 78 -46 25 0 34 12 137 180 49 80 106 168 126 196 121 165 295
220 422 132 41 -29 38 -94 -8 -168 -18 -30 -59 -98 -90 -150 -31 -52 -85 -140
-120 -195 -36 -55 -64 -109 -62 -119 1 -12 16 -24 39 -32 35 -12 40 -11 67 12
16 13 54 68 86 121 31 54 83 141 116 193 138 218 157 288 100 367 -59 82 -168
109 -316 78 -47 -10 -88 -15 -92 -11 -4 4 -2 16 5 26 20 33 14 58 -18 75 -37
19 -43 19 -67 -2z"/>
<path d="M18210 4520 c-8 -5 -11 -12 -7 -16 4 -4 15 0 24 9 18 18 8 23 -17 7z"/>
<path d="M6872 4478 c2 -6 10 -14 16 -16 7 -2 10 2 6 12 -7 18 -28 22 -22 4z"/>
<path d="M18123 4455 c-22 -19 -24 -24 -11 -25 9 0 30 11 45 25 22 19 24 24
11 25 -9 0 -30 -11 -45 -25z"/>
<path d="M6950 4420 c0 -14 47 -43 62 -38 8 3 4 12 -10 26 -23 23 -52 30 -52
12z"/>
<path d="M13336 4388 c-23 -22 -26 -32 -36 -178 -7 -85 -20 -244 -31 -352 -10
-109 -19 -225 -19 -257 0 -33 -7 -112 -16 -177 -16 -112 -15 -118 1 -131 19
-13 60 -8 83 10 6 5 12 24 12 42 0 42 9 65 24 65 6 0 32 -18 56 -40 122 -108
303 -64 419 101 73 104 94 177 94 322 0 100 -4 127 -24 179 -32 81 -87 142
-146 162 -88 30 -160 19 -254 -39 -31 -19 -63 -35 -70 -35 -9 0 -11 36 -6 164
4 115 2 167 -6 175 -18 18 -54 13 -81 -11z m357 -349 c70 -36 117 -135 117
-246 0 -123 -58 -284 -121 -337 -91 -76 -195 -74 -266 7 -45 51 -58 98 -57
202 3 221 110 385 252 385 29 0 63 -5 75 -11z"/>
<path d="M12604 4362 c-36 -5 -53 -35 -69 -118 -8 -43 -19 -104 -25 -134 -15
-77 -57 -305 -81 -435 -11 -60 -26 -139 -34 -175 -51 -234 -50 -250 7 -250 67
0 70 8 123 305 14 77 32 169 40 205 8 36 17 83 20 105 7 45 33 180 65 335 12
58 20 116 18 129 -3 26 -30 39 -64 33z"/>
<path d="M7060 4350 c0 -5 7 -10 16 -10 8 0 12 5 9 10 -3 6 -10 10 -16 10 -5
0 -9 -4 -9 -10z"/>
<path d="M14665 4318 c-19 -17 -34 -53 -59 -143 -19 -66 -50 -169 -69 -230
-20 -60 -46 -146 -59 -189 -35 -119 -72 -127 -102 -21 -8 28 -24 75 -35 105
-41 103 -72 185 -104 275 l-33 90 -43 3 c-80 6 -87 -21 -33 -143 18 -38 79
-191 138 -339 116 -293 115 -289 76 -396 -27 -73 -67 -116 -117 -125 -51 -10
-65 -21 -65 -54 0 -66 65 -84 148 -42 61 31 128 139 157 251 3 14 12 41 19 60
8 19 23 67 34 105 26 90 96 316 179 577 36 113 63 213 60 222 -9 24 -61 20
-92 -6z"/>
<path d="M17875 4280 c-3 -5 -2 -10 4 -10 5 0 13 5 16 10 3 6 2 10 -4 10 -5 0
-13 -4 -16 -10z"/>
<path d="M7192 4268 c7 -19 181 -137 205 -137 33 -1 18 26 -26 48 -74 38 -151
83 -156 92 -9 13 -27 11 -23 -3z"/>
<path d="M10477 4262 c-10 -10 -17 -22 -17 -26 0 -7 -35 -80 -221 -464 -49
-100 -89 -189 -89 -197 0 -19 31 -35 69 -35 42 0 39 -5 211 355 39 83 91 190
116 239 24 49 44 97 44 107 0 38 -84 54 -113 21z"/>
<path d="M17782 4238 c-19 -19 -14 -30 10 -26 13 2 24 11 26 21 4 20 -18 23
-36 5z"/>
<path d="M17689 4185 c-33 -18 -46 -45 -21 -45 20 1 62 34 62 49 0 14 -9 13
-41 -4z"/>
<path d="M10977 4169 c-142 -33 -280 -209 -327 -417 -20 -88 -20 -97 -5 -154
19 -75 44 -117 91 -153 87 -67 213 -84 319 -43 73 28 195 140 195 179 0 20 -7
30 -29 39 -41 17 -69 5 -120 -52 -49 -55 -124 -98 -170 -98 -55 0 -110 30
-141 76 -25 36 -30 52 -30 104 0 140 100 332 209 401 38 25 55 29 115 29 60 0
76 -4 109 -27 45 -31 52 -43 62 -101 6 -37 12 -46 41 -58 42 -18 49 -18 68 2
10 10 16 33 16 63 0 86 -78 177 -176 207 -52 15 -168 17 -227 3z"/>
<path d="M17578 4107 c-7 -7 -23 -20 -36 -29 -13 -9 -19 -19 -14 -22 6 -3 16
0 24 7 7 7 25 18 41 24 29 13 37 33 13 33 -8 0 -21 -6 -28 -13z"/>
<path d="M7485 4091 c-3 -6 3 -15 14 -20 24 -14 31 -14 31 -1 0 14 -38 32 -45
21z"/>
<path d="M11811 4064 c-79 -21 -117 -42 -177 -97 -77 -70 -73 -107 12 -107 27
0 44 10 82 45 78 75 178 92 282 49 60 -26 80 -51 80 -105 0 -61 -15 -95 -49
-108 -14 -5 -109 -12 -211 -14 -217 -5 -245 -12 -316 -82 -44 -42 -54 -59 -63
-106 -26 -124 33 -229 148 -263 91 -27 172 -17 269 31 58 29 84 25 90 -15 5
-32 26 -44 74 -40 l43 3 8 83 c5 62 23 132 68 265 51 151 62 194 63 254 1 69
0 73 -34 108 -64 67 -134 96 -265 109 -29 3 -73 -2 -104 -10z m219 -443 c0
-35 -41 -121 -83 -175 -92 -118 -327 -130 -373 -19 -40 95 13 184 122 208 33
7 121 13 197 14 l137 1 0 -29z"/>
<path d="M7560 4035 c0 -8 7 -15 15 -15 8 0 15 4 15 9 0 5 -7 11 -15 15 -9 3
-15 0 -15 -9z"/>
<path d="M17435 4017 c-11 -9 -14 -16 -8 -20 6 -4 22 2 34 13 18 14 20 19 8
20 -8 0 -23 -6 -34 -13z"/>
<path d="M7730 3945 c7 -8 18 -15 25 -15 7 0 15 -6 18 -13 3 -8 31 -24 64 -37
32 -13 73 -35 91 -48 18 -14 35 -22 38 -19 7 7 -84 67 -102 67 -7 0 -14 4 -16
8 -6 17 -91 72 -111 72 -16 0 -17 -3 -7 -15z"/>
<path d="M17120 3846 c-14 -7 -52 -27 -85 -44 -33 -17 -61 -35 -63 -41 -5 -16
43 -14 56 2 6 7 38 26 71 42 33 15 62 34 65 42 7 16 -12 16 -44 -1z"/>
<path d="M8069 3756 c6 -8 23 -16 37 -19 24 -4 24 -3 8 14 -21 23 -63 27 -45
5z"/>
<path d="M8140 3721 c0 -5 15 -14 34 -21 18 -6 42 -20 51 -31 10 -10 36 -22
57 -25 21 -4 41 -11 44 -15 7 -12 24 -11 24 0 0 5 -10 13 -22 17 -13 4 -34 15
-47 25 -13 11 -31 19 -41 19 -10 0 -29 9 -43 20 -26 21 -57 27 -57 11z"/>
<path d="M16839 3700 l-24 -19 26 -1 c24 0 49 16 49 32 0 15 -27 8 -51 -12z"/>
<path d="M16695 3624 c-5 -1 -22 -5 -37 -8 -42 -9 -33 -26 10 -19 20 3 39 7
41 9 7 6 -4 21 -14 18z"/>
<path d="M8410 3590 c0 -13 121 -70 148 -70 12 0 22 4 22 10 0 13 -34 30 -62
30 -13 0 -36 9 -53 20 -33 22 -55 26 -55 10z"/>
<path d="M16435 3525 c-16 -7 -42 -18 -57 -24 -18 -7 -28 -18 -28 -32 0 -18 4
-20 28 -14 15 3 36 15 48 26 11 10 27 19 36 19 9 0 26 9 39 20 l24 19 -30 0
c-16 0 -43 -6 -60 -14z"/>
<path d="M8690 3470 c0 -5 7 -10 15 -10 8 0 15 5 15 10 0 6 -7 10 -15 10 -8 0
-15 -4 -15 -10z"/>
<path d="M8792 3428 c3 -7 20 -14 38 -16 30 -3 32 -2 21 12 -16 19 -65 22 -59
4z"/>
<path d="M16174 3410 c-29 -11 -39 -29 -21 -36 17 -6 77 22 77 36 0 12 -27 12
-56 0z"/>
<path d="M8886 3393 c-3 -4 -1 -12 5 -20 14 -16 52 -18 47 -1 -5 13 -44 29
-52 21z"/>
<path d="M16051 3361 c-11 -10 -40 -21 -63 -25 -50 -8 -118 -44 -118 -63 0
-19 14 -16 35 7 10 11 37 25 59 31 83 22 138 47 131 59 -9 14 -19 12 -44 -9z"/>
<path d="M9032 3343 c-10 -4 -10 -8 -1 -19 13 -16 64 -20 54 -4 -9 15 -39 28
-53 23z"/>
<path d="M9120 3294 c0 -13 36 -33 60 -34 13 0 44 -7 68 -17 30 -11 46 -13 54
-5 19 19 -2 32 -50 32 -26 0 -60 7 -76 15 -29 16 -56 20 -56 9z"/>
<path d="M15733 3238 c-40 -13 -44 -31 -5 -22 52 11 62 15 62 25 0 11 -15 10
-57 -3z"/>
<path d="M9360 3210 c0 -6 17 -10 37 -10 43 0 41 5 -4 13 -19 4 -33 2 -33 -3z"/>
<path d="M15550 3180 c0 -13 40 -13 60 0 11 7 5 10 -22 10 -21 0 -38 -4 -38
-10z"/>
<path d="M9550 3170 c-13 -9 -13 -11 0 -20 8 -5 26 -10 38 -10 13 0 35 -9 49
-20 18 -14 41 -20 74 -20 36 0 54 -5 69 -20 21 -21 64 -27 74 -11 4 5 -7 12
-23 16 -17 3 -40 14 -53 24 -14 11 -48 20 -85 24 -42 3 -71 12 -89 26 -30 24
-33 24 -54 11z"/>
<path d="M15423 3143 c-7 -2 -13 -9 -13 -15 0 -12 50 -2 65 13 10 10 -30 12
-52 2z"/>
<path d="M15334 3105 c-18 -15 -17 -16 16 -9 44 8 63 24 29 24 -14 0 -34 -7
-45 -15z"/>
<path d="M15205 3070 c-18 -7 -19 -8 -2 -15 21 -9 50 1 42 15 -7 12 -13 12
-40 0z"/>
<path d="M9952 3024 c9 -9 24 -14 32 -11 27 11 17 27 -16 27 -30 0 -31 -1 -16
-16z"/>
<path d="M14971 3019 c-40 -16 -11 -29 39 -17 79 19 90 27 35 27 -27 0 -61 -5
-74 -10z"/>
<path d="M10080 3011 c0 -14 60 -41 89 -41 28 0 35 17 13 29 -32 17 -102 25
-102 12z"/>
<path d="M14880 2974 c0 -9 7 -14 17 -12 25 5 28 28 4 28 -12 0 -21 -6 -21
-16z"/>
<path d="M10235 2961 c-3 -6 11 -13 32 -16 21 -4 48 -10 61 -16 54 -21 73 0
22 26 -32 17 -106 20 -115 6z"/>
<path d="M14637 2945 c-15 -9 -51 -18 -80 -21 -73 -8 -86 -12 -67 -24 24 -15
80 -11 140 10 30 11 71 19 90 20 23 0 31 3 24 10 -19 19 -77 21 -107 5z"/>
<path d="M10410 2921 c0 -18 24 -26 115 -37 50 -7 109 -18 132 -25 33 -10 46
-10 55 -1 17 17 5 24 -52 27 -29 2 -62 10 -73 18 -27 18 -177 33 -177 18z"/>
<path d="M14260 2870 c-13 -9 -13 -11 0 -20 23 -16 95 -8 95 10 0 18 -72 26
-95 10z"/>
<path d="M10820 2840 c0 -16 24 -24 105 -32 117 -13 144 -13 157 0 8 8 4 14
-16 22 -35 13 -246 22 -246 10z"/>
<path d="M13970 2833 c-8 -3 -23 -13 -33 -22 -11 -9 -40 -16 -73 -17 -55 -2
-73 -8 -61 -20 11 -12 60 -8 122 9 32 9 91 17 130 18 45 0 86 7 115 19 l45 19
-115 0 c-63 0 -122 -3 -130 -6z"/>
<path d="M11165 2789 c-4 -6 -5 -13 -1 -16 9 -9 94 -16 113 -9 17 7 17 8 -1
22 -23 16 -102 19 -111 3z"/>
<path d="M13673 2790 c-48 -7 -55 -11 -45 -27 7 -10 117 -1 130 11 15 16 -33
25 -85 16z"/>
<path d="M11314 2762 c13 -21 75 -26 406 -35 74 -2 153 -9 175 -16 22 -7 60
-11 85 -9 l45 3 -50 8 c-27 4 -63 13 -80 19 -30 12 -57 14 -250 22 -55 3 -154
8 -219 12 -82 4 -117 3 -112 -4z"/>
<path d="M13181 2741 c-7 -5 -10 -14 -6 -20 5 -8 43 -11 128 -7 122 4 157 10
157 27 0 12 -261 11 -279 0z"/>
<path d="M12080 2711 l-45 -6 34 -8 c45 -9 171 -8 196 3 15 7 9 9 -25 9 -25 1
-61 3 -80 5 -19 2 -55 1 -80 -3z"/>
<path d="M12322 2709 c-15 -5 -14 -7 4 -17 14 -7 117 -10 325 -7 286 3 359 8
359 24 0 8 -664 8 -688 0z"/>
</g>
</svg>
