<svg width="291" height="291" viewBox="0 0 291 291" fill="none" xmlns="http://www.w3.org/2000/svg">
<mask id="mask0_373_1130" style="mask-type:alpha" maskUnits="userSpaceOnUse" x="0" y="0" width="291" height="291">
<rect x="0.414062" y="0.46344" width="289.699" height="289.699" fill="white"/>
</mask>
<g mask="url(#mask0_373_1130)">
<path d="M168.8 83.114C168.8 65.5742 154.637 51.3536 137.168 51.3536C119.699 51.3536 105.535 65.5742 105.535 83.114C105.535 90.1025 107.787 96.5658 111.601 101.811C116.112 108.64 127.849 116.351 127.849 120.972V123.226H127.099V127.184L147.062 125.106C147.123 125.106 147.176 125.121 147.237 125.121V123.218H146.486V120.965C146.486 116.344 158.216 108.632 162.735 101.803C166.548 96.5582 168.8 90.0949 168.8 83.1064V83.114ZM138.373 54.7717C139.374 54.7717 140.185 55.5863 140.185 56.5912C140.185 57.596 139.374 58.4106 138.373 58.4106C137.372 58.4106 136.561 57.596 136.561 56.5912C136.561 55.5863 137.372 54.7717 138.373 54.7717ZM156.586 91.2368C156.229 93.6196 154.144 101.453 142.217 103.28C141.581 110.543 141.588 118.468 141.679 123.233H140.125C140.026 118.491 140.003 110.68 140.625 103.478C138.411 103.699 135.917 103.699 133.703 103.478C134.317 110.68 134.294 118.483 134.203 123.233H132.649C132.74 118.483 132.755 110.581 132.11 103.28C120.191 101.453 118.099 93.6196 117.742 91.2368C117.272 88.1004 118.372 84.9639 120.358 83.7687C121.587 83.0379 123.057 82.878 124.604 83.3272C126.97 84.0047 129.207 86.0373 130.586 88.7475C131.944 91.4119 132.945 95.8349 133.551 101.895C135.841 102.146 138.472 102.146 140.762 101.895C141.368 95.8349 142.369 91.4119 143.726 88.7475C145.114 86.0297 147.351 84.0047 149.709 83.3272C151.263 82.878 152.734 83.0303 153.955 83.7687C155.941 84.9639 157.04 88.1004 156.57 91.2368H156.586ZM161.719 83.114C161.719 71.8167 154.106 61.9886 143.211 59.2176C142.24 58.9739 141.649 57.9767 141.899 57.0022C142.149 56.0278 143.135 55.434 144.105 55.6852C156.616 58.8674 165.35 70.1419 165.35 83.114C165.35 84.1189 164.539 84.9335 163.538 84.9335C162.538 84.9335 161.726 84.1189 161.726 83.114H161.719Z" fill="white"/>
<path d="M125.477 85.5218C125.114 85.4027 124.764 85.3466 124.426 85.3466C123.894 85.3466 123.405 85.4938 122.98 85.7811C121.803 86.5659 121.127 88.9553 121.427 91.2116C122.109 96.2778 126.009 99.9216 131.9 101.036C131.418 95.8014 130.654 92.0175 129.634 89.7892C128.651 87.638 127.099 86.0403 125.477 85.5218Z" fill="white"/>
<path d="M153.591 85.7811C153.058 85.4938 152.448 85.3466 151.783 85.3466C151.36 85.3466 150.922 85.4027 150.468 85.5218C148.449 86.0403 146.501 87.638 145.272 89.7892C143.997 92.0175 143.042 95.8014 142.439 101.036C149.803 99.9216 154.678 96.2778 155.531 91.2116C155.907 88.9483 155.054 86.5659 153.591 85.7811Z" fill="white"/>
<path d="M129.269 133.8C129.359 134.225 129.527 134.634 129.751 135.029L147.33 133.709C147.435 133.699 147.539 133.719 147.637 133.729C147.686 133.471 147.714 133.213 147.714 132.955V132.414L129.325 133.795C129.325 133.795 129.283 133.795 129.262 133.795L129.269 133.8Z" fill="white"/>
<path d="M129.262 128.562V129.799L147.554 128.426C147.61 128.426 147.658 128.436 147.714 128.436V127.184L129.422 128.557C129.366 128.557 129.317 128.562 129.262 128.557V128.562Z" fill="white"/>
<path d="M136.254 140.26H139.431C142.625 140.26 145.59 138.584 147.306 135.819C147.461 135.567 147.583 135.299 147.714 135.031L129.262 136.992C131.018 139.037 133.55 140.252 136.254 140.252V140.26Z" fill="white"/>
<path d="M83.3317 32.6179C82.7122 31.9959 81.6999 31.9959 81.0728 32.6104C80.4457 33.2249 80.4457 34.2292 81.0652 34.8512L108.837 62.6471C109.147 62.9618 109.562 63.1192 109.97 63.1192C110.378 63.1192 110.786 62.9693 111.096 62.662C111.723 62.0475 111.723 61.0433 111.104 60.4213L83.3317 32.6179Z" fill="white"/>
<path d="M194.685 33.0969C194.066 32.4749 193.054 32.4749 192.426 33.0894L165.032 60.0235C164.405 60.638 164.405 61.6422 165.025 62.2642C165.334 62.579 165.75 62.7289 166.158 62.7289C166.566 62.7289 166.974 62.579 167.284 62.2717L194.678 35.3377C195.305 34.7231 195.305 33.7189 194.685 33.0969Z" fill="white"/>
<path d="M116.528 32.4669C116.203 31.6576 115.274 31.2604 114.458 31.5826C113.642 31.9049 113.242 32.8267 113.567 33.636L121.212 52.6412C121.461 53.2633 122.058 53.638 122.693 53.638C122.889 53.638 123.093 53.6005 123.282 53.5256C124.098 53.2033 124.498 52.2815 124.174 51.4722L116.528 32.4669Z" fill="white"/>
<path d="M103.307 72.8469L82.2667 63.8838C81.4583 63.5391 80.5215 63.9138 80.1664 64.7157C79.8189 65.5176 80.1966 66.4469 81.005 66.7991L102.045 75.7621C102.249 75.852 102.461 75.8895 102.673 75.8895C103.292 75.8895 103.881 75.5298 104.138 74.9303C104.486 74.1284 104.108 73.1991 103.3 72.8469H103.307Z" fill="white"/>
<path d="M195.717 66.2149C195.392 65.398 194.456 65.0083 193.647 65.3306L173.377 73.3569C172.561 73.6791 172.161 74.6009 172.486 75.4103C172.735 76.0323 173.332 76.407 173.967 76.407C174.163 76.407 174.367 76.3695 174.556 76.2946L194.826 68.2683C195.642 67.9461 196.042 67.0243 195.717 66.2149Z" fill="white"/>
<path d="M162.321 32.1974C161.512 31.8527 160.575 32.2274 160.228 33.0292L152.272 51.3975C151.925 52.1993 152.295 53.1286 153.111 53.4808C153.315 53.5708 153.527 53.6082 153.738 53.6082C154.358 53.6082 154.947 53.2485 155.204 52.649L163.159 34.2808C163.507 33.4789 163.136 32.5496 162.321 32.1974Z" fill="white"/>
<path d="M138.242 9.51355C137.358 9.51355 136.648 10.2255 136.648 11.0948V48.6931C136.648 49.5699 137.366 50.2744 138.242 50.2744C139.118 50.2744 139.836 49.5624 139.836 48.6931V11.0948C139.836 10.218 139.118 9.51355 138.242 9.51355Z" fill="white"/>
<path d="M105.034 193.417H34.3652V194.017C34.3652 196.999 35.3323 199.75 36.9641 201.998C39.4573 205.423 43.5218 207.649 48.1001 207.649H123.989" fill="white"/>
<path d="M105.034 193.417H34.3652V194.017C34.3652 196.999 35.3323 199.75 36.9641 201.998C39.4573 205.423 43.5218 207.649 48.1001 207.649H123.989" stroke="white" stroke-width="3.96848" stroke-linecap="round" stroke-linejoin="round"/>
<path d="M183.342 207.649H228.384C232.97 207.649 237.027 205.423 239.52 201.998C241.16 199.758 242.119 197 242.119 194.017V193.417H160.617V193.552C160.617 194.632 159.891 195.508 158.992 195.508H156.129C165.202 200.522 174.344 204.599 183.334 207.641L183.342 207.649ZM208.923 197.075C208.923 196.662 209.263 196.325 209.678 196.325H220.844C221.26 196.325 221.6 196.662 221.6 197.075V197.254C221.6 197.667 221.26 198.004 220.844 198.004H209.678C209.263 198.004 208.923 197.667 208.923 197.254V197.075Z" fill="white"/>
<path d="M190.003 91.4817H213.484C214.323 91.4817 215.101 91.6915 215.773 92.0587C217.111 92.7857 218.01 94.1421 218.01 95.6784V174.517C218.01 176.84 215.985 178.721 213.492 178.721H130.584C134.958 182.071 139.408 185.219 143.903 188.142H224.975C225.489 187.167 225.784 186.066 225.784 184.889V91.2044C225.784 87.3449 222.626 84.2123 218.735 84.2123H175.052C174.984 86.6854 174.682 89.121 174.123 91.4817H190.011H190.003Z" fill="white"/>
<path d="M50.7124 128.489V184.898C50.7124 186.074 51.007 187.176 51.5208 188.15H98.9128" fill="white"/>
<path d="M50.7124 128.489V184.898C50.7124 186.074 51.007 187.176 51.5208 188.15H98.9128" stroke="white" stroke-width="3.96848" stroke-linecap="round" stroke-linejoin="round"/>
<path d="M88.9259 178.721H63.0125C61.6753 178.721 60.4816 178.182 59.6505 177.327C58.9328 176.585 58.4946 175.596 58.4946 174.517V141.438" fill="white"/>
<path d="M88.9259 178.721H63.0125C61.6753 178.721 60.4816 178.182 59.6505 177.327C58.9328 176.585 58.4946 175.596 58.4946 174.517V141.438" stroke="white" stroke-width="3.96848" stroke-linecap="round" stroke-linejoin="round"/>
<path d="M62.8706 91.4967C62.9159 91.4967 62.9688 91.4817 63.0142 91.4817H102.375C101.816 89.1135 101.522 86.6779 101.446 84.2123H60.2642C61.0574 86.6255 61.9262 89.0536 62.8706 91.4967Z" fill="white"/>
<path d="M203.164 158.59C204.856 158.59 206.526 158.485 208.135 158.29C210.175 158.036 212.321 157.586 214.708 156.919L215.101 156.807V137.427C208.981 140.829 203.172 144.943 197.611 149.17C194.476 151.553 191.371 153.996 188.243 156.409C193.214 157.713 198.208 158.583 203.164 158.583V158.59Z" fill="white"/>
<path d="M215.1 164.526C209.517 165.755 203.919 167.217 198.51 168.625C189.942 170.859 181.096 173.167 172.211 174.591C168.789 175.138 165.389 175.535 162.087 175.767V175.857H213.476C214.375 175.857 215.1 175.258 215.1 174.523V164.526Z" fill="white"/>
<path d="M108.993 159.887C114.742 165.59 120.748 170.919 126.906 175.85H150.447C141.57 175.318 132.889 173.317 125.107 169.112C110.292 161.109 100.69 146.405 89.7126 133.702C86.5017 129.985 82.9434 126.351 79.1055 123.091C87.2497 135.786 97.2751 148.264 108.993 159.887Z" fill="white"/>
<path d="M61.3799 145.753V174.515C61.3799 174.89 61.5688 175.167 61.7274 175.332C62.0447 175.662 62.5131 175.849 63.0042 175.849H86.0921" fill="white"/>
<path d="M61.3799 145.753V174.515C61.3799 174.89 61.5688 175.167 61.7274 175.332C62.0447 175.662 62.5131 175.849 63.0042 175.849H86.0921" stroke="white" stroke-width="1.98424" stroke-linecap="round" stroke-linejoin="round"/>
<path d="M213.474 175.85C214.373 175.85 215.098 175.25 215.098 174.516V164.526C200.752 167.681 186.714 172.26 172.209 174.591C168.416 175.198 164.548 175.64 160.68 175.85H213.474Z" fill="white"/>
<path d="M208.314 159.715C182.386 162.944 157.251 139.982 132.093 146.997C124.885 149.005 118.365 153.382 111.77 157.159C116.001 161.326 120.587 165.043 125.792 167.853C132.818 171.645 141.144 173.856 150.527 174.418C150.527 174.418 156.306 174.748 160.598 174.418C164.284 174.216 168.115 173.796 171.975 173.174C180.792 171.758 189.608 169.457 198.138 167.239C203.577 165.822 209.198 164.361 214.789 163.124L215.106 163.057V158.306C212.878 158.928 210.626 159.43 208.322 159.715H208.314Z" fill="white"/>
<path d="M104.404 164.115C53.0558 112.567 34.189 46.8204 59.2342 12.1318C57.0943 13.69 55.0525 15.4071 53.1613 17.3056C20.7247 49.8687 38.642 120.638 93.1777 175.386C147.706 230.127 218.207 248.114 250.637 215.558C252.528 213.66 254.238 211.61 255.79 209.462C221.236 234.604 155.745 215.664 104.404 164.115Z" fill="white"/>
<path d="M49.3343 247.062V245.194H34.3628V247.062H40.8236V262.815H42.8994V247.062H49.3343Z" fill="white"/>
<path d="M64.9532 260.921H54.3149V254.899H64.1748V253.031H54.3149V247.062H64.9273V245.194H52.2651V262.815H64.9532V260.921Z" fill="white"/>
<path d="M76.7061 261.21C72.814 261.21 69.7522 258.054 69.7522 254.004C69.7522 249.928 72.814 246.799 76.7061 246.799C79.7159 246.799 82.129 248.429 83.0112 251.269L84.9832 250.691C83.9194 247.14 80.7019 244.852 76.7061 244.852C71.6464 244.852 67.6765 248.876 67.6765 254.004C67.6765 259.133 71.6464 263.156 76.7061 263.156C80.7019 263.156 83.9194 260.868 84.9832 257.187L83.0112 256.713C82.1031 259.606 79.7159 261.21 76.7061 261.21Z" fill="white"/>
<path d="M103.233 245.194H101.183V253.005H90.7524V245.194H88.7025V262.815H90.7524V254.872H101.183V262.815H103.233V245.194Z" fill="white"/>
<path d="M133.079 245.194H131.289L123.713 259.711L116.136 245.194H114.346V262.815H116.318V249.613L123.194 262.815H124.257L131.107 249.613V262.815H133.079V245.194Z" fill="white"/>
<path d="M153.096 262.815L145.312 245.194H143.418L135.634 262.815H137.839L139.785 258.344H148.944L150.89 262.815H153.096ZM148.14 256.476H140.589L144.378 247.772L148.14 256.476Z" fill="white"/>
<path d="M170.179 245.194H168.129V253.005H157.698V245.194H155.648V262.815H157.698V254.872H168.129V262.815H170.179V245.194Z" fill="white"/>
<path d="M182.901 244.852C177.841 244.852 173.897 248.902 173.897 254.004C173.897 259.133 177.841 263.156 182.901 263.156C187.935 263.156 191.879 259.133 191.879 254.004C191.879 248.902 187.935 244.852 182.901 244.852ZM182.901 261.184C179.009 261.184 175.973 258.081 175.973 254.004C175.973 249.954 179.009 246.799 182.901 246.799C186.767 246.799 189.803 249.954 189.803 254.004C189.803 258.081 186.767 261.184 182.901 261.184Z" fill="white"/>
<path d="M208.134 247.062V245.194H193.162V247.062H199.623V262.815H201.699V247.062H208.134Z" fill="white"/>
<path d="M216.344 244.852C212.633 244.852 210.169 246.877 210.169 249.902C210.169 252.716 212.115 253.899 214.346 254.399L218.264 255.267C220.21 255.714 221.092 256.371 221.092 258.028C221.092 259.974 219.509 261.315 216.863 261.315C214.164 261.315 212.166 259.922 211.777 257.45L209.624 257.897C210.039 261.237 212.997 263.156 216.681 263.156C220.573 263.156 223.142 261.131 223.142 257.923C223.142 255.109 221.17 253.873 218.757 253.347L214.969 252.479C213.334 252.137 212.348 251.427 212.348 249.849C212.348 247.956 213.957 246.667 216.292 246.667C218.679 246.667 220.418 248.035 220.807 250.165L222.857 249.691C222.26 246.799 219.821 244.852 216.344 244.852Z" fill="white"/>
<path d="M242.264 262.815L234.48 245.194H232.586L224.801 262.815H227.007L228.953 258.344H238.112L240.058 262.815H242.264ZM237.308 256.476H229.757L233.546 247.772L237.308 256.476Z" fill="white"/>
<path d="M258.427 245.194H256.196L249.865 259.974L243.533 245.194H241.302L248.879 262.815H250.851L258.427 245.194Z" fill="white"/>
<path d="M94.9919 276.232H34.3628" stroke="white" stroke-width="1.98424" stroke-linecap="round" stroke-linejoin="round"/>
<path d="M255.792 278.847H197.799" stroke="white" stroke-width="1.98424" stroke-linecap="round" stroke-linejoin="round"/>
</g>
</svg>
