<svg width="50" height="50" viewBox="0 0 50 50" fill="none" xmlns="http://www.w3.org/2000/svg">
<mask id="mask0_530_1586" style="mask-type:alpha" maskUnits="userSpaceOnUse" x="0" y="0" width="50" height="50">
<rect width="50" height="50" fill="white"/>
</mask>
<g mask="url(#mask0_530_1586)">
<path d="M29.0627 12.9393C29.0627 9.95216 26.6182 7.53027 23.6031 7.53027C20.5881 7.53027 18.1436 9.95216 18.1436 12.9393C18.1436 14.1295 18.5322 15.2303 19.1905 16.1236C19.9691 17.2866 21.9948 18.5999 21.9948 19.3869V19.7707H21.8653V20.4449L25.3109 20.0909C25.3213 20.0909 25.3305 20.0935 25.341 20.0935V19.7694H25.2114V19.3856C25.2114 18.5986 27.2358 17.2853 28.0158 16.1223C28.674 15.229 29.0627 14.1282 29.0627 12.938V12.9393ZM23.8112 8.11241C23.9839 8.11241 24.1239 8.25114 24.1239 8.42228C24.1239 8.59342 23.9839 8.73214 23.8112 8.73214C23.6384 8.73214 23.4984 8.59342 23.4984 8.42228C23.4984 8.25114 23.6384 8.11241 23.8112 8.11241ZM26.9545 14.3227C26.893 14.7285 26.5331 16.0626 24.4747 16.3738C24.3647 17.6107 24.366 18.9604 24.3817 19.772H24.1135C24.0965 18.9642 24.0925 17.634 24.1998 16.4075C23.8177 16.4451 23.3872 16.4451 23.0051 16.4075C23.1111 17.634 23.1071 18.9629 23.0914 19.772H22.8232C22.8389 18.9629 22.8415 17.6172 22.7303 16.3738C20.6731 16.0626 20.3119 14.7285 20.2504 14.3227C20.1693 13.7886 20.359 13.2544 20.7019 13.0508C20.9139 12.9264 21.1678 12.8991 21.4347 12.9756C21.843 13.091 22.2291 13.4372 22.4672 13.8988C22.7015 14.3525 22.8742 15.1058 22.9789 16.1378C23.3741 16.1806 23.8282 16.1806 24.2234 16.1378C24.3281 15.1058 24.5008 14.3525 24.7351 13.8988C24.9745 13.4359 25.3606 13.091 25.7676 12.9756C26.0358 12.8991 26.2897 12.9251 26.5004 13.0508C26.8433 13.2544 27.033 13.7886 26.9519 14.3227H26.9545ZM27.8404 12.9393C27.8404 11.0153 26.5266 9.34151 24.6461 8.86957C24.4786 8.82809 24.3765 8.65824 24.4197 8.49229C24.4629 8.32633 24.633 8.22521 24.8005 8.26799C26.9597 8.80993 28.4673 10.7301 28.4673 12.9393C28.4673 13.1105 28.3272 13.2492 28.1545 13.2492C27.9818 13.2492 27.8417 13.1105 27.8417 12.9393H27.8404Z" fill="white"/>
<path d="M21.5849 13.3497C21.5222 13.3294 21.4617 13.3198 21.4033 13.3198C21.3115 13.3198 21.2272 13.3449 21.1538 13.3938C20.9506 13.5275 20.834 13.9344 20.8858 14.3187C21.0036 15.1815 21.6767 15.8021 22.6934 15.9918C22.6102 15.1004 22.4784 14.4559 22.3023 14.0764C22.1326 13.7101 21.8647 13.438 21.5849 13.3497Z" fill="white"/>
<path d="M26.4378 13.3938C26.3459 13.3449 26.2406 13.3198 26.1258 13.3198C26.0529 13.3198 25.9772 13.3294 25.8989 13.3497C25.5504 13.438 25.2141 13.7101 25.0021 14.0764C24.782 14.4559 24.6172 15.1004 24.5132 15.9918C25.7841 15.8021 26.6255 15.1815 26.7727 14.3187C26.8376 13.9332 26.6903 13.5275 26.4378 13.3938Z" fill="white"/>
<path d="M22.239 21.5717C22.2547 21.6441 22.2836 21.7138 22.3222 21.781L25.3562 21.5562C25.3743 21.5545 25.3924 21.5579 25.4093 21.5597C25.4177 21.5157 25.4225 21.4718 25.4225 21.4279V21.3357L22.2486 21.5708C22.2486 21.5708 22.2414 21.5708 22.2378 21.5708L22.239 21.5717Z" fill="white"/>
<path d="M22.2378 20.6795V20.8902L25.395 20.6564C25.4045 20.6564 25.4129 20.6581 25.4225 20.6581V20.4448L22.2654 20.6786C22.2558 20.6786 22.2474 20.6795 22.2378 20.6786V20.6795Z" fill="white"/>
<path d="M23.4446 22.6719H23.993C24.5442 22.6719 25.056 22.3864 25.352 21.9154C25.3788 21.8726 25.4 21.8269 25.4225 21.7812L22.2378 22.1152C22.5409 22.4635 22.9779 22.6705 23.4446 22.6705V22.6719Z" fill="white"/>
<path d="M14.3115 4.34011C14.2046 4.23417 14.0299 4.23417 13.9217 4.33883C13.8134 4.44349 13.8134 4.61452 13.9204 4.72045L18.7136 9.45432C18.7671 9.50792 18.8388 9.53473 18.9092 9.53473C18.9796 9.53473 19.05 9.5092 19.1035 9.45687C19.2117 9.35221 19.2117 9.18119 19.1048 9.07525L14.3115 4.34011Z" fill="white"/>
<path d="M33.5303 4.4219C33.4234 4.31596 33.2486 4.31596 33.1404 4.42062L28.4124 9.00771C28.3042 9.11237 28.3042 9.28339 28.4111 9.38933C28.4645 9.44293 28.5363 9.46846 28.6067 9.46846C28.6771 9.46846 28.7475 9.44293 28.801 9.39061L33.529 4.80352C33.6372 4.69886 33.6372 4.52783 33.5303 4.4219Z" fill="white"/>
<path d="M20.0409 4.31494C19.9848 4.1771 19.8244 4.10945 19.6836 4.16434C19.5428 4.21922 19.4737 4.3762 19.5297 4.51405L20.8493 7.75079C20.8923 7.85673 20.9954 7.92054 21.1049 7.92054C21.1388 7.92054 21.174 7.91416 21.2066 7.9014C21.3474 7.84651 21.4165 7.68953 21.3605 7.55169L20.0409 4.31494Z" fill="white"/>
<path d="M17.7589 11.1914L14.1275 9.66491C13.988 9.60619 13.8263 9.67001 13.765 9.80658C13.705 9.94314 13.7702 10.1014 13.9097 10.1614L17.5412 11.6879C17.5764 11.7032 17.6129 11.7096 17.6494 11.7096C17.7563 11.7096 17.858 11.6483 17.9023 11.5462C17.9623 11.4096 17.8971 11.2514 17.7576 11.1914H17.7589Z" fill="white"/>
<path d="M33.7083 10.0622C33.6522 9.92306 33.4905 9.85669 33.351 9.91157L29.8525 11.2785C29.7117 11.3334 29.6426 11.4904 29.6987 11.6282C29.7417 11.7342 29.8447 11.798 29.9543 11.798C29.9882 11.798 30.0234 11.7916 30.056 11.7788L33.5544 10.4119C33.6952 10.357 33.7643 10.2 33.7083 10.0622Z" fill="white"/>
<path d="M27.9442 4.26867C27.8047 4.20995 27.643 4.27377 27.583 4.41034L26.21 7.53859C26.15 7.67516 26.2139 7.83342 26.3547 7.89341C26.3899 7.90873 26.4265 7.91511 26.463 7.91511C26.5699 7.91511 26.6716 7.85384 26.7159 7.75174L28.089 4.62348C28.1489 4.48692 28.085 4.32865 27.9442 4.26867Z" fill="white"/>
<path d="M23.7883 0.405273C23.6358 0.405273 23.5132 0.526524 23.5132 0.674577V7.07787C23.5132 7.2272 23.6371 7.34717 23.7883 7.34717C23.9396 7.34717 24.0634 7.22592 24.0634 7.07787V0.674577C24.0634 0.525247 23.9396 0.405273 23.7883 0.405273Z" fill="white"/>
<path d="M18.0563 31.7239H5.85938V31.826C5.85938 32.334 6.02628 32.8024 6.30793 33.1853C6.73822 33.7685 7.43973 34.1476 8.22991 34.1476H21.3278" fill="white"/>
<path d="M18.0563 31.7239H5.85938V31.826C5.85938 32.334 6.02628 32.8024 6.30793 33.1853C6.73822 33.7685 7.43973 34.1476 8.22991 34.1476H21.3278" stroke="white" stroke-width="0.78125" stroke-linecap="round" stroke-linejoin="round"/>
<path d="M31.5717 34.1476H39.3457C40.1372 34.1476 40.8374 33.7685 41.2677 33.1853C41.5507 32.8036 41.7163 32.334 41.7163 31.826V31.7239H27.6495V31.7469C27.6495 31.9306 27.5244 32.08 27.3692 32.08H26.875C28.441 32.9338 30.0188 33.6281 31.5704 34.1463L31.5717 34.1476ZM35.9868 32.3467C35.9868 32.2765 36.0455 32.2191 36.1172 32.2191H38.0444C38.1161 32.2191 38.1748 32.2765 38.1748 32.3467V32.3774C38.1748 32.4475 38.1161 32.505 38.0444 32.505H36.1172C36.0455 32.505 35.9868 32.4475 35.9868 32.3774V32.3467Z" fill="white"/>
<path d="M32.7217 14.3638H36.7743C36.919 14.3638 37.0533 14.3995 37.1694 14.462C37.4002 14.5858 37.5553 14.8169 37.5553 15.0785V28.5054C37.5553 28.901 37.2059 29.2214 36.7756 29.2214H22.4663C23.2213 29.7919 23.9893 30.328 24.7651 30.8257H38.7576C38.8462 30.6598 38.8971 30.4722 38.8971 30.2718V14.3165C38.8971 13.6592 38.352 13.1257 37.6805 13.1257H30.1412C30.1295 13.5469 30.0773 13.9617 29.9808 14.3638H32.723H32.7217Z" fill="white"/>
<path d="M8.68115 20.6663V30.2731C8.68115 30.4735 8.73201 30.6611 8.82067 30.827H17.0002" fill="white"/>
<path d="M8.68115 20.6663V30.2731C8.68115 30.4735 8.73201 30.6611 8.82067 30.827H17.0002" stroke="white" stroke-width="0.78125" stroke-linecap="round" stroke-linejoin="round"/>
<path d="M15.2766 29.2213H10.8042C10.5734 29.2213 10.3673 29.1294 10.2239 28.9839C10.1 28.8575 10.0244 28.689 10.0244 28.5053V22.8716" fill="white"/>
<path d="M15.2766 29.2213H10.8042C10.5734 29.2213 10.3673 29.1294 10.2239 28.9839C10.1 28.8575 10.0244 28.689 10.0244 28.5053V22.8716" stroke="white" stroke-width="0.78125" stroke-linecap="round" stroke-linejoin="round"/>
<path d="M10.7794 14.3663C10.7873 14.3663 10.7964 14.3638 10.8042 14.3638H17.5977C17.5012 13.9604 17.4503 13.5456 17.4373 13.1257H10.3296C10.4665 13.5367 10.6165 13.9502 10.7794 14.3663Z" fill="white"/>
<path d="M34.9927 25.7935C35.2848 25.7935 35.573 25.7757 35.8507 25.7425C36.2028 25.6991 36.5731 25.6225 36.9851 25.5089L37.0529 25.4898V22.1892C35.9968 22.7687 34.994 23.4694 34.0343 24.1892C33.4932 24.5951 32.9573 25.0111 32.4175 25.4221C33.2755 25.6442 34.1374 25.7923 34.9927 25.7923V25.7935Z" fill="white"/>
<path d="M37.053 26.8042C36.0894 27.0135 35.1232 27.2624 34.1895 27.5023C32.7109 27.8827 31.184 28.2758 29.6506 28.5183C29.0599 28.6115 28.4731 28.6791 27.9033 28.7187V28.734H36.7726C36.9278 28.734 37.053 28.6319 37.053 28.5068V26.8042Z" fill="white"/>
<path d="M18.7389 26.0145C19.7312 26.9858 20.7678 27.8933 21.8305 28.7331H25.8935C24.3614 28.6425 22.8632 28.3017 21.5202 27.5857C18.9632 26.2226 17.3059 23.7184 15.4113 21.5551C14.8571 20.922 14.243 20.303 13.5806 19.7478C14.9862 21.9099 16.7165 24.035 18.7389 26.0145Z" fill="white"/>
<path d="M10.522 23.6069V28.5054C10.522 28.5693 10.5546 28.6165 10.582 28.6446C10.6367 28.7007 10.7176 28.7326 10.8023 28.7326H14.7871" fill="white"/>
<path d="M10.522 23.6069V28.5054C10.522 28.5693 10.5546 28.6165 10.582 28.6446C10.6367 28.7007 10.7176 28.7326 10.8023 28.7326H14.7871" stroke="white" stroke-width="0.390625" stroke-linecap="round" stroke-linejoin="round"/>
<path d="M36.7725 28.7327C36.9276 28.7327 37.0528 28.6306 37.0528 28.5055V26.8042C34.5767 27.3415 32.154 28.1214 29.6504 28.5183C28.9959 28.6217 28.3283 28.697 27.6606 28.7327H36.7725Z" fill="white"/>
<path d="M35.8821 25.9847C31.407 26.5348 27.0689 22.6242 22.7268 23.8188C21.4829 24.1609 20.3576 24.9062 19.2192 25.5495C19.9494 26.2591 20.7409 26.8922 21.6393 27.3708C22.852 28.0166 24.2889 28.3932 25.9084 28.4889C25.9084 28.4889 26.9059 28.545 27.6465 28.4889C28.2828 28.4544 28.9439 28.3829 29.6102 28.277C31.1319 28.0358 32.6536 27.644 34.1257 27.2662C35.0645 27.0249 36.0347 26.7761 36.9996 26.5655L37.0543 26.554V25.7448C36.6697 25.8507 36.2811 25.9362 35.8834 25.9847H35.8821Z" fill="white"/>
<path d="M17.9483 26.7346C9.0859 17.9555 5.82964 6.75833 10.1522 0.850586C9.78293 1.11596 9.43051 1.40838 9.10411 1.73172C3.50578 7.27748 6.59819 19.33 16.0107 28.6541C25.4218 37.9769 37.5899 41.0402 43.1869 35.4958C43.5133 35.1724 43.8085 34.8233 44.0764 34.4575C38.1127 38.7395 26.8094 35.5138 17.9483 26.7346Z" fill="white"/>
<path d="M8.44335 40.8616V40.5436H5.85938V40.8616H6.97447V43.5444H7.33273V40.8616H8.44335Z" fill="white"/>
<path d="M11.1391 43.222H9.30297V42.1963H11.0047V41.8783H9.30297V40.8616H11.1346V40.5436H8.94918V43.5444H11.1391V43.222Z" fill="white"/>
<path d="M13.1675 43.2712C12.4958 43.2712 11.9673 42.7338 11.9673 42.044C11.9673 41.3498 12.4958 40.8168 13.1675 40.8168C13.687 40.8168 14.1035 41.0945 14.2557 41.5782L14.5961 41.4797C14.4125 40.875 13.8572 40.4854 13.1675 40.4854C12.2943 40.4854 11.6091 41.1706 11.6091 42.044C11.6091 42.9174 12.2943 43.6027 13.1675 43.6027C13.8572 43.6027 14.4125 43.213 14.5961 42.586L14.2557 42.5053C14.099 42.998 13.687 43.2712 13.1675 43.2712Z" fill="white"/>
<path d="M17.7459 40.5436H17.3921V41.8738H15.5918V40.5436H15.238V43.5444H15.5918V42.1918H17.3921V43.5444H17.7459V40.5436Z" fill="white"/>
<path d="M22.8971 40.5436H22.5881L21.2805 43.0159L19.9728 40.5436H19.6638V43.5444H20.0042V41.296L21.1909 43.5444H21.3745L22.5568 41.296V43.5444H22.8971V40.5436Z" fill="white"/>
<path d="M26.3519 43.5444L25.0084 40.5436H24.6815L23.338 43.5444H23.7186L24.0545 42.783H25.6353L25.9712 43.5444H26.3519ZM25.4965 42.465H24.1933L24.8472 40.9825L25.4965 42.465Z" fill="white"/>
<path d="M29.3002 40.5436H28.9464V41.8738H27.1461V40.5436H26.7923V43.5444H27.1461V42.1918H28.9464V43.5444H29.3002V40.5436Z" fill="white"/>
<path d="M31.496 40.4854C30.6227 40.4854 29.942 41.1751 29.942 42.044C29.942 42.9174 30.6227 43.6027 31.496 43.6027C32.3648 43.6027 33.0455 42.9174 33.0455 42.044C33.0455 41.1751 32.3648 40.4854 31.496 40.4854ZM31.496 43.2667C30.8243 43.2667 30.3003 42.7382 30.3003 42.044C30.3003 41.3543 30.8243 40.8168 31.496 40.8168C32.1633 40.8168 32.6872 41.3543 32.6872 42.044C32.6872 42.7382 32.1633 43.2667 31.496 43.2667Z" fill="white"/>
<path d="M35.851 40.8616V40.5436H33.267V40.8616H34.3821V43.5444H34.7404V40.8616H35.851Z" fill="white"/>
<path d="M37.268 40.4854C36.6276 40.4854 36.2022 40.8302 36.2022 41.3453C36.2022 41.8245 36.538 42.0261 36.9232 42.1112L37.5994 42.259C37.9353 42.3351 38.0875 42.4471 38.0875 42.7293C38.0875 43.0607 37.8143 43.2891 37.3576 43.2891C36.8918 43.2891 36.547 43.0518 36.4798 42.6307L36.1081 42.7069C36.1798 43.2757 36.6903 43.6027 37.3262 43.6027C37.998 43.6027 38.4413 43.2578 38.4413 42.7114C38.4413 42.2321 38.101 42.0216 37.6845 41.932L37.0306 41.7842C36.7485 41.726 36.5783 41.6051 36.5783 41.3363C36.5783 41.0139 36.856 40.7944 37.259 40.7944C37.671 40.7944 37.9711 41.0273 38.0383 41.3901L38.392 41.3095C38.289 40.8168 37.8681 40.4854 37.268 40.4854Z" fill="white"/>
<path d="M41.7416 43.5444L40.3981 40.5436H40.0712L38.7277 43.5444H39.1084L39.4442 42.783H41.0251L41.3609 43.5444H41.7416ZM40.8862 42.465H39.5831L40.2369 40.9825L40.8862 42.465Z" fill="white"/>
<path d="M44.5312 40.5436H44.1461L43.0534 43.0607L41.9607 40.5436H41.5756L42.8832 43.5444H43.2236L44.5312 40.5436Z" fill="white"/>
<path d="M16.3235 45.8291H5.85938" stroke="white" stroke-width="0.390625" stroke-linecap="round" stroke-linejoin="round"/>
<path d="M44.0766 46.2744H34.0674" stroke="white" stroke-width="0.390625" stroke-linecap="round" stroke-linejoin="round"/>
</g>
</svg>
